<svg width="24" height="25" viewBox="0 0 24 25" fill="none" xmlns="http://www.w3.org/2000/svg">
<g clip-path="url(#clip0_472_699)">
<path d="M11.9862 24.5098C10.0842 24.5098 8.4306 23.1538 8.037 21.316H2.18039C1.95584 21.3151 1.73657 21.2478 1.55009 21.1227C1.36361 20.9976 1.21823 20.8202 1.13219 20.6128C0.956395 20.167 1.06199 19.6756 1.40039 19.357C1.39859 19.357 1.74239 18.9538 2.09999 18.0994C2.45399 17.2426 2.87579 15.7492 2.87579 13.51C2.87579 10.855 3.46079 7.21061 6.2478 4.92701C6.99057 4.31288 7.84072 3.84172 8.7552 3.53741C8.7954 3.01241 8.9586 2.20781 9.5304 1.53521C9.9426 1.05761 10.7058 0.491211 12.012 0.491211C13.3584 0.491211 14.1144 1.06001 14.5116 1.53701C14.9436 2.04641 15.1974 2.70401 15.267 3.49421C16.1862 3.80836 17.0386 4.29145 17.7804 4.91861C19.3056 6.21041 21.1224 8.75441 21.1224 13.537C21.1224 15.8338 21.537 17.3248 21.885 18.1714C22.2042 18.964 22.5258 19.2994 22.5618 19.3348C22.9248 19.6792 23.034 20.1388 22.8846 20.5696C22.8109 20.7616 22.6874 20.9305 22.5268 21.0589C22.3662 21.1874 22.1743 21.2707 21.9708 21.3004C21.9294 21.316 21.8538 21.316 21.804 21.316H15.9324C15.5382 23.1538 13.8858 24.5098 11.9862 24.5098ZM8.65319 21.3154C9.0348 22.816 10.4106 23.9092 11.9862 23.9092C13.5594 23.9092 14.9346 22.816 15.318 21.3154H8.65319ZM15.684 20.7154H21.8058C21.8196 20.7154 21.8346 20.7166 21.8484 20.7142C22.0836 20.6782 22.2504 20.5462 22.3236 20.3602C22.3572 20.2644 22.362 20.1608 22.3376 20.0622C22.3132 19.9636 22.2606 19.8743 22.1862 19.8052L22.1406 19.7602C22.0662 19.6858 21.6864 19.279 21.3306 18.3964C20.9628 17.5024 20.523 15.9316 20.523 13.5358C20.523 8.98241 18.8214 6.58481 17.3934 5.37521C16.6609 4.7544 15.8108 4.28769 14.8938 4.00301C14.8345 3.98499 14.7823 3.94908 14.7443 3.9002C14.7063 3.85132 14.6843 3.79187 14.6814 3.73001C14.6466 2.98181 14.4354 2.37341 14.052 1.92161C13.7352 1.54061 13.1256 1.08941 12.0114 1.08941C10.9326 1.08941 10.314 1.54301 9.9852 1.92401C9.4482 2.55581 9.35279 3.34961 9.34319 3.76601C9.34187 3.82963 9.32034 3.89119 9.28173 3.94177C9.24311 3.99236 9.18942 4.02935 9.1284 4.04741C8.50679 4.23161 7.5684 4.61321 6.62819 5.38901C4.02239 7.52441 3.47519 10.9828 3.47519 13.5082C3.47519 15.8464 3.02819 17.4202 2.65319 18.328C2.24459 19.303 1.84559 19.7548 1.82879 19.7734C1.74489 19.8487 1.68634 19.9481 1.6612 20.058C1.63607 20.1679 1.64556 20.2829 1.68839 20.3872C1.72914 20.4838 1.79741 20.5662 1.88468 20.6243C1.97196 20.6823 2.07438 20.7134 2.17919 20.7136H15.684V20.7154Z" fill="black" fill-opacity="0.6"/>
</g>
<defs>
<clipPath id="clip0_472_699">
<rect width="24" height="24" fill="white" transform="translate(0 0.5)"/>
</clipPath>
</defs>
</svg>
