<svg width="28" height="28" viewBox="0 0 28 28" fill="none" xmlns="http://www.w3.org/2000/svg">
<path d="M25.1429 24H2.85714C2.62981 24 2.4118 23.9042 2.25105 23.7337C2.09031 23.5632 2 23.332 2 23.0909V7.63636C2 7.39526 2.09031 7.16403 2.25105 6.99354C2.4118 6.82305 2.62981 6.72727 2.85714 6.72727H8.39429L9.86 4.40909C9.93765 4.28404 10.0432 4.18126 10.1673 4.10989C10.2914 4.03852 10.4303 4.00077 10.5714 4H17.4286C17.5697 4.00077 17.7086 4.03852 17.8327 4.10989C17.9568 4.18126 18.0624 4.28404 18.14 4.40909L19.6057 6.72727H25.1429C25.3702 6.72727 25.5882 6.82305 25.7489 6.99354C25.9097 7.16403 26 7.39526 26 7.63636V23.0909C26 23.332 25.9097 23.5632 25.7489 23.7337C25.5882 23.9042 25.3702 24 25.1429 24ZM3.71429 22.1818H24.2857V8.54545H19.1429C19.0017 8.54468 18.8629 8.50693 18.7388 8.43556C18.6146 8.3642 18.5091 8.26142 18.4314 8.13636L16.9657 5.81818H11.0343L9.56857 8.13636C9.49092 8.26142 9.38536 8.3642 9.26124 8.43556C9.13713 8.50693 8.99832 8.54468 8.85714 8.54545H3.71429V22.1818Z" fill="#70A9F2"/>
<path d="M14.0001 20.3632C12.983 20.3632 11.9886 20.0433 11.1429 19.4439C10.2972 18.8446 9.638 17.9927 9.24875 16.996C8.8595 15.9993 8.75765 14.9026 8.95609 13.8445C9.15453 12.7864 9.64434 11.8145 10.3636 11.0517C11.0828 10.2889 11.9992 9.76938 12.9968 9.55891C13.9944 9.34845 15.0285 9.45646 15.9682 9.86931C16.9079 10.2821 17.7112 10.9813 18.2763 11.8783C18.8414 12.7753 19.143 13.8298 19.143 14.9086C19.143 16.3553 18.6012 17.7427 17.6367 18.7656C16.6722 19.7885 15.3641 20.3632 14.0001 20.3632ZM14.0001 11.2723C13.322 11.2723 12.6591 11.4856 12.0953 11.8851C11.5315 12.2847 11.092 12.8526 10.8325 13.5171C10.573 14.1815 10.5051 14.9127 10.6374 15.6181C10.7697 16.3235 11.0963 16.9714 11.5758 17.4799C12.0553 17.9885 12.6662 18.3348 13.3312 18.4751C13.9963 18.6155 14.6857 18.5434 15.3122 18.2682C15.9387 17.993 16.4741 17.5269 16.8509 16.9289C17.2276 16.3309 17.4287 15.6279 17.4287 14.9086C17.4287 13.9442 17.0675 13.0193 16.4245 12.3374C15.7815 11.6554 14.9094 11.2723 14.0001 11.2723Z" fill="#70A9F2"/>
</svg>
