<svg width="24" height="24" viewBox="0 0 24 24" fill="none" xmlns="http://www.w3.org/2000/svg">
<path d="M13.35 11.7819V19.4788L11.2953 18.3486L11.1639 18.2763L11.0916 18.4076L10.3686 19.7209L10.2962 19.8524L10.4277 19.9247L13.8162 21.7884C13.9491 21.8615 14.0983 21.8999 14.25 21.8999C14.4017 21.8999 14.5509 21.8615 14.6838 21.7884L22.1838 17.6634L22.1115 17.532L22.1838 17.6634C22.325 17.5858 22.4427 17.4716 22.5247 17.333C22.6067 17.1943 22.65 17.0361 22.65 16.875V7.12499C22.65 6.96386 22.6067 6.80571 22.5247 6.66703C22.4427 6.52835 22.325 6.41422 22.1838 6.33657L22.1115 6.46799L22.1838 6.33656L14.6838 2.21157C14.6838 2.21157 14.6838 2.21156 14.6838 2.21156C14.5509 2.13846 14.4017 2.10012 14.25 2.10012C14.0983 2.10012 13.9491 2.13846 13.8162 2.21156C13.8162 2.21156 13.8162 2.21157 13.8162 2.21157L6.31622 6.33656L6.31616 6.33659C6.17505 6.41429 6.05738 6.52843 5.97543 6.6671L6.10393 6.74304L5.97543 6.6671C5.89348 6.80578 5.85024 6.96391 5.85024 7.12499C5.85024 7.28608 5.89348 7.44421 5.97543 7.58288C6.05738 7.72156 6.17505 7.8357 6.31616 7.91339L6.31622 7.91343L13.35 11.7819ZM8.61756 7.12499L14.25 4.02768L19.8825 7.12499L14.25 10.2223L8.61756 7.12499ZM20.85 8.64618V16.3431L15.15 19.4781V11.7812L20.85 8.64618Z" fill="#EF0000" stroke="#EF0000" stroke-width="0.3"/>
<path d="M7.5 12.15H7.65V12V10.5V10.35H7.5H1.5H1.35V10.5V12V12.15H1.5H7.5ZM9 18.15H9.15V18V16.5V16.35H9H3H2.85V16.5V18V18.15H3H9ZM10.5 15.15H10.65V15V13.5V13.35H10.5H4.5H4.35V13.5V15V15.15H4.5H10.5Z" fill="#EF0000" stroke="#EF0000" stroke-width="0.3"/>
</svg>
