<svg width="24" height="24" viewBox="0 0 24 24" fill="none" xmlns="http://www.w3.org/2000/svg">
<path d="M8 11C8 10.7348 8.10536 10.4805 8.29289 10.2929C8.48043 10.1054 8.73478 10 9 10H15C15.2652 10 15.5196 10.1054 15.7071 10.2929C15.8946 10.4805 16 10.7348 16 11C16 11.2653 15.8946 11.5196 15.7071 11.7071C15.5196 11.8947 15.2652 12 15 12H9C8.73478 12 8.48043 11.8947 8.29289 11.7071C8.10536 11.5196 8 11.2653 8 11ZM9 14C8.73478 14 8.48043 14.1054 8.29289 14.2929C8.10536 14.4805 8 14.7348 8 15C8 15.2653 8.10536 15.5196 8.29289 15.7071C8.48043 15.8947 8.73478 16 9 16H13C13.2652 16 13.5196 15.8947 13.7071 15.7071C13.8946 15.5196 14 15.2653 14 15C14 14.7348 13.8946 14.4805 13.7071 14.2929C13.5196 14.1054 13.2652 14 13 14H9ZM2 12C2.0005 9.80763 2.72148 7.67615 4.05199 5.93363C5.38249 4.1911 7.24877 2.93411 9.3636 2.35611C11.4784 1.77811 13.7246 1.91112 15.7565 2.73469C17.7883 3.55826 19.4932 5.02673 20.6087 6.9141C21.7243 8.80148 22.1886 11.0032 21.9304 13.1803C21.6721 15.3574 20.7055 17.3894 19.1794 18.9634C17.6533 20.5374 15.6521 21.5662 13.484 21.8916C11.3159 22.2169 9.10092 21.8208 7.18 20.764L3.292 21.948C3.11858 22.0009 2.93407 22.0056 2.75819 21.9616C2.58231 21.9177 2.42168 21.8267 2.2935 21.6985C2.16531 21.5704 2.07438 21.4097 2.03043 21.2338C1.98648 21.058 1.99117 20.8735 2.044 20.7L3.228 16.806C2.42153 15.3326 1.9992 13.6797 2 12ZM12 4.00003C10.5799 3.99992 9.18532 4.37782 7.95956 5.09495C6.7338 5.81207 5.72102 6.84255 5.02526 8.08056C4.32949 9.31856 3.97581 10.7195 4.00054 12.1394C4.02528 13.5593 4.42754 14.947 5.166 16.16C5.23931 16.2805 5.28629 16.4152 5.30387 16.5551C5.32145 16.6951 5.30923 16.8371 5.268 16.972L4.502 19.49L7.016 18.724C7.15132 18.6828 7.29384 18.6708 7.43416 18.6887C7.57448 18.7066 7.70939 18.7541 7.83 18.828C8.88436 19.4718 10.0735 19.8626 11.3041 19.9698C12.5348 20.0771 13.7736 19.8979 14.9234 19.4463C16.0732 18.9946 17.1029 18.2829 17.9316 17.3667C18.7603 16.4506 19.3656 15.355 19.7 14.1658C20.0344 12.9766 20.0889 11.7261 19.8592 10.5123C19.6295 9.29854 19.1218 8.15445 18.3759 7.16971C17.63 6.18497 16.6662 5.38635 15.56 4.83643C14.4538 4.2865 13.2353 4.00023 12 4.00003Z" fill="#70A9F2" stroke="#70A9F2" stroke-width="0.1"/>
</svg>
