<svg width="24" height="24" viewBox="0 0 24 24" fill="none" xmlns="http://www.w3.org/2000/svg">
<mask id="path-1-outside-1_3943_789" maskUnits="userSpaceOnUse" x="0.599976" y="0.599976" width="22" height="22" fill="black">
<rect fill="white" x="0.599976" y="0.599976" width="22" height="22"/>
<path fill-rule="evenodd" clip-rule="evenodd" d="M4.47998 1.59998H4.39998C4.03358 1.59998 3.71838 1.59998 3.43998 1.66558C3.00899 1.76856 2.61494 1.98885 2.30146 2.30204C1.98799 2.61523 1.76735 3.00909 1.66398 3.43998C1.59998 3.71838 1.59998 4.03198 1.59998 4.39998V8.39998C1.59998 8.76638 1.59998 9.08158 1.66558 9.35998C1.76856 9.79096 1.98885 10.185 2.30204 10.4985C2.61523 10.812 3.00909 11.0326 3.43998 11.136C3.71838 11.2 4.03198 11.2 4.39998 11.2H8.39998C8.76638 11.2 9.08157 11.2 9.35997 11.1344C9.79096 11.0314 10.185 10.8111 10.4985 10.4979C10.812 10.1847 11.0326 9.79086 11.136 9.35998C11.2 9.08158 11.2 8.76798 11.2 8.39998V4.39998C11.2 4.03358 11.2 3.71838 11.1344 3.43998C11.0314 3.00899 10.8111 2.61494 10.4979 2.30146C10.1847 1.98799 9.79086 1.76735 9.35997 1.66398C9.08157 1.59998 8.76798 1.59998 8.39998 1.59998H4.47998ZM3.81278 3.22238C3.88158 3.20638 3.98878 3.19998 4.47998 3.19998H8.31997C8.81277 3.19998 8.91838 3.20478 8.98718 3.22238C9.1309 3.25675 9.2623 3.33026 9.3668 3.43475C9.47129 3.53925 9.5448 3.67065 9.57917 3.81438C9.59517 3.88158 9.59998 3.98718 9.59998 4.47998V8.31998C9.59998 8.81278 9.59518 8.91838 9.57758 8.98718C9.5432 9.1309 9.46969 9.2623 9.3652 9.3668C9.2607 9.47129 9.1293 9.54481 8.98558 9.57918C8.91998 9.59358 8.81437 9.59998 8.31997 9.59998H4.47998C3.98718 9.59998 3.88158 9.59518 3.81278 9.57758C3.66905 9.54321 3.53765 9.4697 3.43315 9.3652C3.32866 9.2607 3.25515 9.1293 3.22078 8.98558C3.20638 8.91998 3.19998 8.81438 3.19998 8.31998V4.47998C3.19998 3.98718 3.20478 3.88158 3.22238 3.81278C3.25675 3.66905 3.33026 3.53765 3.43475 3.43315C3.53925 3.32866 3.67065 3.25515 3.81438 3.22078M15.68 1.59998H15.6C15.2336 1.59998 14.9184 1.59998 14.64 1.66558C14.209 1.76856 13.8149 1.98885 13.5015 2.30204C13.188 2.61523 12.9673 3.00909 12.864 3.43998C12.8 3.71838 12.8 4.03198 12.8 4.39998V8.39998C12.8 8.76638 12.8 9.08158 12.8656 9.35998C12.9686 9.79096 13.1888 10.185 13.502 10.4985C13.8152 10.812 14.2091 11.0326 14.64 11.136C14.9184 11.2 15.232 11.2 15.6 11.2H19.6C19.9664 11.2 20.2816 11.2 20.56 11.1344C20.991 11.0314 21.385 10.8111 21.6985 10.4979C22.012 10.1847 22.2326 9.79086 22.336 9.35998C22.4 9.08158 22.4 8.76798 22.4 8.39998V4.39998C22.4 4.03358 22.4 3.71838 22.3344 3.43998C22.2314 3.00899 22.0111 2.61494 21.6979 2.30146C21.3847 1.98799 20.9909 1.76735 20.56 1.66398C20.2816 1.59998 19.968 1.59998 19.6 1.59998H15.68ZM15.0128 3.22238C15.0816 3.20638 15.1888 3.19998 15.68 3.19998H19.52C20.0128 3.19998 20.1184 3.20478 20.1872 3.22238C20.3309 3.25675 20.4623 3.33026 20.5668 3.43475C20.6713 3.53925 20.7448 3.67065 20.7792 3.81438C20.7952 3.88158 20.8 3.98718 20.8 4.47998V8.31998C20.8 8.81278 20.7936 8.91838 20.7776 8.98718C20.7432 9.1309 20.6697 9.2623 20.5652 9.3668C20.4607 9.47129 20.3293 9.54481 20.1856 9.57918C20.1184 9.59518 20.0128 9.59998 19.52 9.59998H15.68C15.1872 9.59998 15.0816 9.59518 15.0128 9.57758C14.869 9.54321 14.7376 9.4697 14.6332 9.3652C14.5287 9.2607 14.4551 9.1293 14.4208 8.98558C14.4064 8.91998 14.4 8.81438 14.4 8.31998V4.47998C14.4 3.98718 14.4048 3.88158 14.4224 3.81278C14.4567 3.66905 14.5303 3.53765 14.6348 3.43315C14.7392 3.32866 14.8706 3.25515 15.0144 3.22078M4.39998 12.8H8.39998C8.76638 12.8 9.08157 12.8 9.35997 12.8656C9.79096 12.9686 10.185 13.1889 10.4985 13.502C10.812 13.8152 11.0326 14.2091 11.136 14.64C11.2 14.9184 11.2 15.232 11.2 15.6V19.6C11.2 19.9664 11.2 20.2816 11.1344 20.56C11.0314 20.991 10.8111 21.385 10.4979 21.6985C10.1847 22.012 9.79086 22.2326 9.35997 22.336C9.08157 22.4 8.76798 22.4 8.39998 22.4H4.39998C4.03358 22.4 3.71838 22.4 3.43998 22.3344C3.00899 22.2314 2.61494 22.0111 2.30146 21.6979C1.98799 21.3847 1.76735 20.9909 1.66398 20.56C1.59998 20.2816 1.59998 19.968 1.59998 19.6V15.6C1.59998 15.2336 1.59998 14.9184 1.66558 14.64C1.76856 14.209 1.98885 13.8149 2.30204 13.5015C2.61523 13.188 3.00909 12.9673 3.43998 12.864C3.71838 12.8 4.03198 12.8 4.39998 12.8ZM4.47998 14.4C3.98718 14.4 3.88158 14.4048 3.81278 14.4224C3.66905 14.4567 3.53765 14.5303 3.43315 14.6348C3.32866 14.7392 3.25515 14.8706 3.22078 15.0144C3.20638 15.08 3.19998 15.1856 3.19998 15.68V19.52C3.19998 20.0128 3.20478 20.1184 3.22238 20.1872C3.25675 20.3309 3.33026 20.4623 3.43475 20.5668C3.53925 20.6713 3.67065 20.7448 3.81438 20.7792C3.88158 20.7952 3.98718 20.8 4.47998 20.8H8.31997C8.81277 20.8 8.91838 20.7936 8.98718 20.7776C9.1309 20.7432 9.2623 20.6697 9.3668 20.5652C9.47129 20.4607 9.5448 20.3293 9.57917 20.1856C9.59517 20.1184 9.59998 20.0128 9.59998 19.52V15.68C9.59998 15.1872 9.59518 15.0816 9.57758 15.0128C9.5432 14.869 9.46969 14.7376 9.3652 14.6332C9.2607 14.5287 9.1293 14.4551 8.98558 14.4208C8.91998 14.4064 8.81437 14.4 8.31997 14.4H4.47998ZM15.68 12.8H15.6C15.2336 12.8 14.9184 12.8 14.64 12.8656C14.209 12.9686 13.8149 13.1889 13.5015 13.502C13.188 13.8152 12.9673 14.2091 12.864 14.64C12.8 14.9184 12.8 15.232 12.8 15.6V19.6C12.8 19.9664 12.8 20.2816 12.8656 20.56C12.9686 20.991 13.1888 21.385 13.502 21.6985C13.8152 22.012 14.2091 22.2326 14.64 22.336C14.9184 22.4016 15.2336 22.4016 15.6 22.4016H19.6C19.9664 22.4016 20.2816 22.4016 20.56 22.336C20.9907 22.2327 21.3844 22.0123 21.6976 21.6992C22.0107 21.386 22.2311 20.9923 22.3344 20.5616C22.4 20.2832 22.4 19.968 22.4 19.6016V15.6016C22.4 15.2352 22.4 14.92 22.3344 14.6416C22.2317 14.2103 22.0115 13.8159 21.6983 13.5021C21.3851 13.1884 20.9911 12.9675 20.56 12.864C20.2816 12.8 19.968 12.8 19.6 12.8H15.68ZM15.0128 14.4224C15.0816 14.4064 15.1888 14.4 15.68 14.4H19.52C20.0128 14.4 20.1184 14.4048 20.1872 14.4224C20.3309 14.4567 20.4623 14.5303 20.5668 14.6348C20.6713 14.7392 20.7448 14.8706 20.7792 15.0144C20.7952 15.0816 20.8 15.1872 20.8 15.68V19.52C20.8 20.0128 20.7936 20.1184 20.7776 20.1872C20.7432 20.3309 20.6697 20.4623 20.5652 20.5668C20.4607 20.6713 20.3293 20.7448 20.1856 20.7792C20.1184 20.7952 20.0128 20.8 19.52 20.8H15.68C15.1872 20.8 15.0816 20.7936 15.0128 20.7776C14.869 20.7432 14.7376 20.6697 14.6332 20.5652C14.5287 20.4607 14.4551 20.3293 14.4208 20.1856C14.4064 20.12 14.4 20.0144 14.4 19.52V15.68C14.4 15.1872 14.4048 15.0816 14.4224 15.0128C14.4567 14.869 14.5303 14.7376 14.6348 14.6332C14.7392 14.5287 14.8706 14.4551 15.0144 14.4208"/>
</mask>
<path fill-rule="evenodd" clip-rule="evenodd" d="M4.47998 1.59998H4.39998C4.03358 1.59998 3.71838 1.59998 3.43998 1.66558C3.00899 1.76856 2.61494 1.98885 2.30146 2.30204C1.98799 2.61523 1.76735 3.00909 1.66398 3.43998C1.59998 3.71838 1.59998 4.03198 1.59998 4.39998V8.39998C1.59998 8.76638 1.59998 9.08158 1.66558 9.35998C1.76856 9.79096 1.98885 10.185 2.30204 10.4985C2.61523 10.812 3.00909 11.0326 3.43998 11.136C3.71838 11.2 4.03198 11.2 4.39998 11.2H8.39998C8.76638 11.2 9.08157 11.2 9.35997 11.1344C9.79096 11.0314 10.185 10.8111 10.4985 10.4979C10.812 10.1847 11.0326 9.79086 11.136 9.35998C11.2 9.08158 11.2 8.76798 11.2 8.39998V4.39998C11.2 4.03358 11.2 3.71838 11.1344 3.43998C11.0314 3.00899 10.8111 2.61494 10.4979 2.30146C10.1847 1.98799 9.79086 1.76735 9.35997 1.66398C9.08157 1.59998 8.76798 1.59998 8.39998 1.59998H4.47998ZM3.81278 3.22238C3.88158 3.20638 3.98878 3.19998 4.47998 3.19998H8.31997C8.81277 3.19998 8.91838 3.20478 8.98718 3.22238C9.1309 3.25675 9.2623 3.33026 9.3668 3.43475C9.47129 3.53925 9.5448 3.67065 9.57917 3.81438C9.59517 3.88158 9.59998 3.98718 9.59998 4.47998V8.31998C9.59998 8.81278 9.59518 8.91838 9.57758 8.98718C9.5432 9.1309 9.46969 9.2623 9.3652 9.3668C9.2607 9.47129 9.1293 9.54481 8.98558 9.57918C8.91998 9.59358 8.81437 9.59998 8.31997 9.59998H4.47998C3.98718 9.59998 3.88158 9.59518 3.81278 9.57758C3.66905 9.54321 3.53765 9.4697 3.43315 9.3652C3.32866 9.2607 3.25515 9.1293 3.22078 8.98558C3.20638 8.91998 3.19998 8.81438 3.19998 8.31998V4.47998C3.19998 3.98718 3.20478 3.88158 3.22238 3.81278C3.25675 3.66905 3.33026 3.53765 3.43475 3.43315C3.53925 3.32866 3.67065 3.25515 3.81438 3.22078M15.68 1.59998H15.6C15.2336 1.59998 14.9184 1.59998 14.64 1.66558C14.209 1.76856 13.8149 1.98885 13.5015 2.30204C13.188 2.61523 12.9673 3.00909 12.864 3.43998C12.8 3.71838 12.8 4.03198 12.8 4.39998V8.39998C12.8 8.76638 12.8 9.08158 12.8656 9.35998C12.9686 9.79096 13.1888 10.185 13.502 10.4985C13.8152 10.812 14.2091 11.0326 14.64 11.136C14.9184 11.2 15.232 11.2 15.6 11.2H19.6C19.9664 11.2 20.2816 11.2 20.56 11.1344C20.991 11.0314 21.385 10.8111 21.6985 10.4979C22.012 10.1847 22.2326 9.79086 22.336 9.35998C22.4 9.08158 22.4 8.76798 22.4 8.39998V4.39998C22.4 4.03358 22.4 3.71838 22.3344 3.43998C22.2314 3.00899 22.0111 2.61494 21.6979 2.30146C21.3847 1.98799 20.9909 1.76735 20.56 1.66398C20.2816 1.59998 19.968 1.59998 19.6 1.59998H15.68ZM15.0128 3.22238C15.0816 3.20638 15.1888 3.19998 15.68 3.19998H19.52C20.0128 3.19998 20.1184 3.20478 20.1872 3.22238C20.3309 3.25675 20.4623 3.33026 20.5668 3.43475C20.6713 3.53925 20.7448 3.67065 20.7792 3.81438C20.7952 3.88158 20.8 3.98718 20.8 4.47998V8.31998C20.8 8.81278 20.7936 8.91838 20.7776 8.98718C20.7432 9.1309 20.6697 9.2623 20.5652 9.3668C20.4607 9.47129 20.3293 9.54481 20.1856 9.57918C20.1184 9.59518 20.0128 9.59998 19.52 9.59998H15.68C15.1872 9.59998 15.0816 9.59518 15.0128 9.57758C14.869 9.54321 14.7376 9.4697 14.6332 9.3652C14.5287 9.2607 14.4551 9.1293 14.4208 8.98558C14.4064 8.91998 14.4 8.81438 14.4 8.31998V4.47998C14.4 3.98718 14.4048 3.88158 14.4224 3.81278C14.4567 3.66905 14.5303 3.53765 14.6348 3.43315C14.7392 3.32866 14.8706 3.25515 15.0144 3.22078M4.39998 12.8H8.39998C8.76638 12.8 9.08157 12.8 9.35997 12.8656C9.79096 12.9686 10.185 13.1889 10.4985 13.502C10.812 13.8152 11.0326 14.2091 11.136 14.64C11.2 14.9184 11.2 15.232 11.2 15.6V19.6C11.2 19.9664 11.2 20.2816 11.1344 20.56C11.0314 20.991 10.8111 21.385 10.4979 21.6985C10.1847 22.012 9.79086 22.2326 9.35997 22.336C9.08157 22.4 8.76798 22.4 8.39998 22.4H4.39998C4.03358 22.4 3.71838 22.4 3.43998 22.3344C3.00899 22.2314 2.61494 22.0111 2.30146 21.6979C1.98799 21.3847 1.76735 20.9909 1.66398 20.56C1.59998 20.2816 1.59998 19.968 1.59998 19.6V15.6C1.59998 15.2336 1.59998 14.9184 1.66558 14.64C1.76856 14.209 1.98885 13.8149 2.30204 13.5015C2.61523 13.188 3.00909 12.9673 3.43998 12.864C3.71838 12.8 4.03198 12.8 4.39998 12.8ZM4.47998 14.4C3.98718 14.4 3.88158 14.4048 3.81278 14.4224C3.66905 14.4567 3.53765 14.5303 3.43315 14.6348C3.32866 14.7392 3.25515 14.8706 3.22078 15.0144C3.20638 15.08 3.19998 15.1856 3.19998 15.68V19.52C3.19998 20.0128 3.20478 20.1184 3.22238 20.1872C3.25675 20.3309 3.33026 20.4623 3.43475 20.5668C3.53925 20.6713 3.67065 20.7448 3.81438 20.7792C3.88158 20.7952 3.98718 20.8 4.47998 20.8H8.31997C8.81277 20.8 8.91838 20.7936 8.98718 20.7776C9.1309 20.7432 9.2623 20.6697 9.3668 20.5652C9.47129 20.4607 9.5448 20.3293 9.57917 20.1856C9.59517 20.1184 9.59998 20.0128 9.59998 19.52V15.68C9.59998 15.1872 9.59518 15.0816 9.57758 15.0128C9.5432 14.869 9.46969 14.7376 9.3652 14.6332C9.2607 14.5287 9.1293 14.4551 8.98558 14.4208C8.91998 14.4064 8.81437 14.4 8.31997 14.4H4.47998ZM15.68 12.8H15.6C15.2336 12.8 14.9184 12.8 14.64 12.8656C14.209 12.9686 13.8149 13.1889 13.5015 13.502C13.188 13.8152 12.9673 14.2091 12.864 14.64C12.8 14.9184 12.8 15.232 12.8 15.6V19.6C12.8 19.9664 12.8 20.2816 12.8656 20.56C12.9686 20.991 13.1888 21.385 13.502 21.6985C13.8152 22.012 14.2091 22.2326 14.64 22.336C14.9184 22.4016 15.2336 22.4016 15.6 22.4016H19.6C19.9664 22.4016 20.2816 22.4016 20.56 22.336C20.9907 22.2327 21.3844 22.0123 21.6976 21.6992C22.0107 21.386 22.2311 20.9923 22.3344 20.5616C22.4 20.2832 22.4 19.968 22.4 19.6016V15.6016C22.4 15.2352 22.4 14.92 22.3344 14.6416C22.2317 14.2103 22.0115 13.8159 21.6983 13.5021C21.3851 13.1884 20.9911 12.9675 20.56 12.864C20.2816 12.8 19.968 12.8 19.6 12.8H15.68ZM15.0128 14.4224C15.0816 14.4064 15.1888 14.4 15.68 14.4H19.52C20.0128 14.4 20.1184 14.4048 20.1872 14.4224C20.3309 14.4567 20.4623 14.5303 20.5668 14.6348C20.6713 14.7392 20.7448 14.8706 20.7792 15.0144C20.7952 15.0816 20.8 15.1872 20.8 15.68V19.52C20.8 20.0128 20.7936 20.1184 20.7776 20.1872C20.7432 20.3309 20.6697 20.4623 20.5652 20.5668C20.4607 20.6713 20.3293 20.7448 20.1856 20.7792C20.1184 20.7952 20.0128 20.8 19.52 20.8H15.68C15.1872 20.8 15.0816 20.7936 15.0128 20.7776C14.869 20.7432 14.7376 20.6697 14.6332 20.5652C14.5287 20.4607 14.4551 20.3293 14.4208 20.1856C14.4064 20.12 14.4 20.0144 14.4 19.52V15.68C14.4 15.1872 14.4048 15.0816 14.4224 15.0128C14.4567 14.869 14.5303 14.7376 14.6348 14.6332C14.7392 14.5287 14.8706 14.4551 15.0144 14.4208" fill="#1559A8"/>
<path fill-rule="evenodd" clip-rule="evenodd" d="M4.47998 1.59998H4.39998C4.03358 1.59998 3.71838 1.59998 3.43998 1.66558C3.00899 1.76856 2.61494 1.98885 2.30146 2.30204C1.98799 2.61523 1.76735 3.00909 1.66398 3.43998C1.59998 3.71838 1.59998 4.03198 1.59998 4.39998V8.39998C1.59998 8.76638 1.59998 9.08158 1.66558 9.35998C1.76856 9.79096 1.98885 10.185 2.30204 10.4985C2.61523 10.812 3.00909 11.0326 3.43998 11.136C3.71838 11.2 4.03198 11.2 4.39998 11.2H8.39998C8.76638 11.2 9.08157 11.2 9.35997 11.1344C9.79096 11.0314 10.185 10.8111 10.4985 10.4979C10.812 10.1847 11.0326 9.79086 11.136 9.35998C11.2 9.08158 11.2 8.76798 11.2 8.39998V4.39998C11.2 4.03358 11.2 3.71838 11.1344 3.43998C11.0314 3.00899 10.8111 2.61494 10.4979 2.30146C10.1847 1.98799 9.79086 1.76735 9.35997 1.66398C9.08157 1.59998 8.76798 1.59998 8.39998 1.59998H4.47998ZM3.81278 3.22238C3.88158 3.20638 3.98878 3.19998 4.47998 3.19998H8.31997C8.81277 3.19998 8.91838 3.20478 8.98718 3.22238C9.1309 3.25675 9.2623 3.33026 9.3668 3.43475C9.47129 3.53925 9.5448 3.67065 9.57917 3.81438C9.59517 3.88158 9.59998 3.98718 9.59998 4.47998V8.31998C9.59998 8.81278 9.59518 8.91838 9.57758 8.98718C9.5432 9.1309 9.46969 9.2623 9.3652 9.3668C9.2607 9.47129 9.1293 9.54481 8.98558 9.57918C8.91998 9.59358 8.81437 9.59998 8.31997 9.59998H4.47998C3.98718 9.59998 3.88158 9.59518 3.81278 9.57758C3.66905 9.54321 3.53765 9.4697 3.43315 9.3652C3.32866 9.2607 3.25515 9.1293 3.22078 8.98558C3.20638 8.91998 3.19998 8.81438 3.19998 8.31998V4.47998C3.19998 3.98718 3.20478 3.88158 3.22238 3.81278C3.25675 3.66905 3.33026 3.53765 3.43475 3.43315C3.53925 3.32866 3.67065 3.25515 3.81438 3.22078M15.68 1.59998H15.6C15.2336 1.59998 14.9184 1.59998 14.64 1.66558C14.209 1.76856 13.8149 1.98885 13.5015 2.30204C13.188 2.61523 12.9673 3.00909 12.864 3.43998C12.8 3.71838 12.8 4.03198 12.8 4.39998V8.39998C12.8 8.76638 12.8 9.08158 12.8656 9.35998C12.9686 9.79096 13.1888 10.185 13.502 10.4985C13.8152 10.812 14.2091 11.0326 14.64 11.136C14.9184 11.2 15.232 11.2 15.6 11.2H19.6C19.9664 11.2 20.2816 11.2 20.56 11.1344C20.991 11.0314 21.385 10.8111 21.6985 10.4979C22.012 10.1847 22.2326 9.79086 22.336 9.35998C22.4 9.08158 22.4 8.76798 22.4 8.39998V4.39998C22.4 4.03358 22.4 3.71838 22.3344 3.43998C22.2314 3.00899 22.0111 2.61494 21.6979 2.30146C21.3847 1.98799 20.9909 1.76735 20.56 1.66398C20.2816 1.59998 19.968 1.59998 19.6 1.59998H15.68ZM15.0128 3.22238C15.0816 3.20638 15.1888 3.19998 15.68 3.19998H19.52C20.0128 3.19998 20.1184 3.20478 20.1872 3.22238C20.3309 3.25675 20.4623 3.33026 20.5668 3.43475C20.6713 3.53925 20.7448 3.67065 20.7792 3.81438C20.7952 3.88158 20.8 3.98718 20.8 4.47998V8.31998C20.8 8.81278 20.7936 8.91838 20.7776 8.98718C20.7432 9.1309 20.6697 9.2623 20.5652 9.3668C20.4607 9.47129 20.3293 9.54481 20.1856 9.57918C20.1184 9.59518 20.0128 9.59998 19.52 9.59998H15.68C15.1872 9.59998 15.0816 9.59518 15.0128 9.57758C14.869 9.54321 14.7376 9.4697 14.6332 9.3652C14.5287 9.2607 14.4551 9.1293 14.4208 8.98558C14.4064 8.91998 14.4 8.81438 14.4 8.31998V4.47998C14.4 3.98718 14.4048 3.88158 14.4224 3.81278C14.4567 3.66905 14.5303 3.53765 14.6348 3.43315C14.7392 3.32866 14.8706 3.25515 15.0144 3.22078M4.39998 12.8H8.39998C8.76638 12.8 9.08157 12.8 9.35997 12.8656C9.79096 12.9686 10.185 13.1889 10.4985 13.502C10.812 13.8152 11.0326 14.2091 11.136 14.64C11.2 14.9184 11.2 15.232 11.2 15.6V19.6C11.2 19.9664 11.2 20.2816 11.1344 20.56C11.0314 20.991 10.8111 21.385 10.4979 21.6985C10.1847 22.012 9.79086 22.2326 9.35997 22.336C9.08157 22.4 8.76798 22.4 8.39998 22.4H4.39998C4.03358 22.4 3.71838 22.4 3.43998 22.3344C3.00899 22.2314 2.61494 22.0111 2.30146 21.6979C1.98799 21.3847 1.76735 20.9909 1.66398 20.56C1.59998 20.2816 1.59998 19.968 1.59998 19.6V15.6C1.59998 15.2336 1.59998 14.9184 1.66558 14.64C1.76856 14.209 1.98885 13.8149 2.30204 13.5015C2.61523 13.188 3.00909 12.9673 3.43998 12.864C3.71838 12.8 4.03198 12.8 4.39998 12.8ZM4.47998 14.4C3.98718 14.4 3.88158 14.4048 3.81278 14.4224C3.66905 14.4567 3.53765 14.5303 3.43315 14.6348C3.32866 14.7392 3.25515 14.8706 3.22078 15.0144C3.20638 15.08 3.19998 15.1856 3.19998 15.68V19.52C3.19998 20.0128 3.20478 20.1184 3.22238 20.1872C3.25675 20.3309 3.33026 20.4623 3.43475 20.5668C3.53925 20.6713 3.67065 20.7448 3.81438 20.7792C3.88158 20.7952 3.98718 20.8 4.47998 20.8H8.31997C8.81277 20.8 8.91838 20.7936 8.98718 20.7776C9.1309 20.7432 9.2623 20.6697 9.3668 20.5652C9.47129 20.4607 9.5448 20.3293 9.57917 20.1856C9.59517 20.1184 9.59998 20.0128 9.59998 19.52V15.68C9.59998 15.1872 9.59518 15.0816 9.57758 15.0128C9.5432 14.869 9.46969 14.7376 9.3652 14.6332C9.2607 14.5287 9.1293 14.4551 8.98558 14.4208C8.91998 14.4064 8.81437 14.4 8.31997 14.4H4.47998ZM15.68 12.8H15.6C15.2336 12.8 14.9184 12.8 14.64 12.8656C14.209 12.9686 13.8149 13.1889 13.5015 13.502C13.188 13.8152 12.9673 14.2091 12.864 14.64C12.8 14.9184 12.8 15.232 12.8 15.6V19.6C12.8 19.9664 12.8 20.2816 12.8656 20.56C12.9686 20.991 13.1888 21.385 13.502 21.6985C13.8152 22.012 14.2091 22.2326 14.64 22.336C14.9184 22.4016 15.2336 22.4016 15.6 22.4016H19.6C19.9664 22.4016 20.2816 22.4016 20.56 22.336C20.9907 22.2327 21.3844 22.0123 21.6976 21.6992C22.0107 21.386 22.2311 20.9923 22.3344 20.5616C22.4 20.2832 22.4 19.968 22.4 19.6016V15.6016C22.4 15.2352 22.4 14.92 22.3344 14.6416C22.2317 14.2103 22.0115 13.8159 21.6983 13.5021C21.3851 13.1884 20.9911 12.9675 20.56 12.864C20.2816 12.8 19.968 12.8 19.6 12.8H15.68ZM15.0128 14.4224C15.0816 14.4064 15.1888 14.4 15.68 14.4H19.52C20.0128 14.4 20.1184 14.4048 20.1872 14.4224C20.3309 14.4567 20.4623 14.5303 20.5668 14.6348C20.6713 14.7392 20.7448 14.8706 20.7792 15.0144C20.7952 15.0816 20.8 15.1872 20.8 15.68V19.52C20.8 20.0128 20.7936 20.1184 20.7776 20.1872C20.7432 20.3309 20.6697 20.4623 20.5652 20.5668C20.4607 20.6713 20.3293 20.7448 20.1856 20.7792C20.1184 20.7952 20.0128 20.8 19.52 20.8H15.68C15.1872 20.8 15.0816 20.7936 15.0128 20.7776C14.869 20.7432 14.7376 20.6697 14.6332 20.5652C14.5287 20.4607 14.4551 20.3293 14.4208 20.1856C14.4064 20.12 14.4 20.0144 14.4 19.52V15.68C14.4 15.1872 14.4048 15.0816 14.4224 15.0128C14.4567 14.869 14.5303 14.7376 14.6348 14.6332C14.7392 14.5287 14.8706 14.4551 15.0144 14.4208" fill="black" fill-opacity="0.2"/>
<path d="M3.43998 1.66558L3.41704 1.56824L3.41673 1.56831L3.43998 1.66558ZM1.66398 3.43998L1.56673 3.41665L1.56652 3.41757L1.66398 3.43998ZM1.66558 9.35998L1.56824 9.38291L1.56831 9.38322L1.66558 9.35998ZM3.43998 11.136L3.41665 11.2332L3.41757 11.2334L3.43998 11.136ZM9.35997 11.1344L9.38291 11.2317L9.38322 11.2316L9.35997 11.1344ZM11.136 9.35998L11.2332 9.38331L11.2334 9.38238L11.136 9.35998ZM11.1344 3.43998L11.2317 3.41704L11.2316 3.41673L11.1344 3.43998ZM9.35997 1.66398L9.3833 1.56673L9.38238 1.56652L9.35997 1.66398ZM8.98718 3.22238L8.96239 3.31927L8.96392 3.31963L8.98718 3.22238ZM9.57917 3.81438L9.67646 3.79121L9.67643 3.79112L9.57917 3.81438ZM9.57758 8.98718L9.48068 8.96239L9.48032 8.96392L9.57758 8.98718ZM8.98558 9.57918L9.00702 9.67687L9.00883 9.67643L8.98558 9.57918ZM3.81278 9.57758L3.83756 9.48068L3.83603 9.48032L3.81278 9.57758ZM3.22078 8.98558L3.12308 9.00702L3.12352 9.00883L3.22078 8.98558ZM3.22238 3.81278L3.31927 3.83756L3.31963 3.83603L3.22238 3.81278ZM14.64 1.66558L14.617 1.56824L14.6167 1.56831L14.64 1.66558ZM12.864 3.43998L12.7667 3.41665L12.7665 3.41757L12.864 3.43998ZM12.8656 9.35998L12.7682 9.38291L12.7683 9.38322L12.8656 9.35998ZM14.64 11.136L14.6166 11.2332L14.6176 11.2334L14.64 11.136ZM20.56 11.1344L20.5829 11.2317L20.5832 11.2316L20.56 11.1344ZM22.336 9.35998L22.4332 9.38331L22.4334 9.38238L22.336 9.35998ZM22.3344 3.43998L22.4317 3.41704L22.4316 3.41673L22.3344 3.43998ZM20.56 1.66398L20.5833 1.56673L20.5824 1.56652L20.56 1.66398ZM20.1872 3.22238L20.1624 3.31927L20.1639 3.31963L20.1872 3.22238ZM20.7792 3.81438L20.8765 3.79121L20.8764 3.79112L20.7792 3.81438ZM20.7776 8.98718L20.8748 9.01043L20.875 9.00983L20.7776 8.98718ZM20.1856 9.57918L20.2087 9.67646L20.2088 9.67643L20.1856 9.57918ZM15.0128 9.57758L15.0376 9.48068L15.036 9.48032L15.0128 9.57758ZM14.4208 8.98558L14.3231 9.00702L14.3235 9.00883L14.4208 8.98558ZM14.4224 3.81278L14.5193 3.83756L14.5196 3.83603L14.4224 3.81278ZM9.35997 12.8656L9.38322 12.7683L9.38291 12.7682L9.35997 12.8656ZM11.136 14.64L11.2334 14.6176L11.2332 14.6166L11.136 14.64ZM11.1344 20.56L11.2316 20.5832L11.2317 20.5829L11.1344 20.56ZM9.35997 22.336L9.38238 22.4334L9.3833 22.4332L9.35997 22.336ZM3.43998 22.3344L3.41673 22.4316L3.41704 22.4317L3.43998 22.3344ZM1.66398 20.56L1.56651 20.5824L1.56673 20.5833L1.66398 20.56ZM1.66558 14.64L1.56831 14.6167L1.56824 14.617L1.66558 14.64ZM3.43998 12.864L3.41757 12.7665L3.41665 12.7667L3.43998 12.864ZM3.81278 14.4224L3.83604 14.5196L3.83756 14.5193L3.81278 14.4224ZM3.22078 15.0144L3.1235 14.9911L3.1231 14.9929L3.22078 15.0144ZM3.22238 20.1872L3.31965 20.1639L3.31926 20.1624L3.22238 20.1872ZM3.81438 20.7792L3.79112 20.8764L3.79121 20.8765L3.81438 20.7792ZM8.98718 20.7776L9.00983 20.875L9.01043 20.8748L8.98718 20.7776ZM9.57917 20.1856L9.67643 20.2088L9.67646 20.2087L9.57917 20.1856ZM9.57758 15.0128L9.48031 15.036L9.48069 15.0376L9.57758 15.0128ZM8.98558 14.4208L9.00884 14.3235L9.00702 14.3231L8.98558 14.4208ZM14.64 12.8656L14.617 12.7682L14.6167 12.7683L14.64 12.8656ZM12.864 14.64L12.7667 14.6166L12.7665 14.6176L12.864 14.64ZM12.8656 20.56L12.7682 20.5829L12.7683 20.5832L12.8656 20.56ZM14.64 22.336L14.6166 22.4332L14.617 22.4333L14.64 22.336ZM20.56 22.336L20.5829 22.4333L20.5833 22.4332L20.56 22.336ZM22.3344 20.5616L22.4316 20.5849L22.4317 20.5845L22.3344 20.5616ZM22.3344 14.6416L22.4317 14.6186L22.4317 14.6184L22.3344 14.6416ZM20.56 12.864L20.5833 12.7667L20.5824 12.7665L20.56 12.864ZM20.1872 14.4224L20.1624 14.5193L20.1639 14.5196L20.1872 14.4224ZM20.7792 15.0144L20.8765 14.9912L20.8764 14.9911L20.7792 15.0144ZM20.7776 20.1872L20.8748 20.2104L20.875 20.2098L20.7776 20.1872ZM20.1856 20.7792L20.2087 20.8765L20.2088 20.8764L20.1856 20.7792ZM15.0128 20.7776L14.9895 20.8748L14.9901 20.875L15.0128 20.7776ZM14.4208 20.1856L14.3231 20.207L14.3235 20.2088L14.4208 20.1856ZM14.4224 15.0128L14.5193 15.0376L14.5196 15.036L14.4224 15.0128ZM4.47998 1.49998H4.39998V1.69998H4.47998V1.49998ZM4.39998 1.49998C4.03687 1.49998 3.70903 1.49944 3.41704 1.56824L3.46291 1.76291C3.72772 1.70051 4.03028 1.69998 4.39998 1.69998V1.49998ZM3.41673 1.56831C2.96779 1.67559 2.55732 1.90506 2.23079 2.2313L2.37214 2.37278C2.67255 2.07264 3.05019 1.86153 3.46322 1.76284L3.41673 1.56831ZM2.23079 2.2313C1.90425 2.55753 1.67441 2.9678 1.56673 3.41665L1.76122 3.4633C1.86028 3.05037 2.07173 2.67292 2.37214 2.37278L2.23079 2.2313ZM1.56652 3.41757C1.49946 3.70925 1.49998 4.03518 1.49998 4.39998H1.69998C1.69998 4.02877 1.70049 3.7275 1.76143 3.46238L1.56652 3.41757ZM1.49998 4.39998V8.39998H1.69998V4.39998H1.49998ZM1.49998 8.39998C1.49998 8.76308 1.49944 9.09092 1.56824 9.38291L1.76291 9.33704C1.70051 9.07223 1.69998 8.76967 1.69998 8.39998H1.49998ZM1.56831 9.38322C1.67559 9.83216 1.90506 10.2426 2.2313 10.5692L2.37278 10.4278C2.07264 10.1274 1.86153 9.74976 1.76284 9.33673L1.56831 9.38322ZM2.2313 10.5692C2.55753 10.8957 2.9678 11.1255 3.41665 11.2332L3.4633 11.0387C3.05037 10.9397 2.67292 10.7282 2.37278 10.4278L2.2313 10.5692ZM3.41757 11.2334C3.70925 11.3005 4.03518 11.3 4.39998 11.3V11.1C4.02877 11.1 3.7275 11.0995 3.46238 11.0385L3.41757 11.2334ZM4.39998 11.3H8.39998V11.1H4.39998V11.3ZM8.39998 11.3C8.76308 11.3 9.09092 11.3005 9.38291 11.2317L9.33704 11.037C9.07223 11.0994 8.76967 11.1 8.39998 11.1V11.3ZM9.38322 11.2316C9.83216 11.1244 10.2426 10.8949 10.5692 10.5687L10.4278 10.4272C10.1274 10.7273 9.74976 10.9384 9.33673 11.0371L9.38322 11.2316ZM10.5692 10.5687C10.8957 10.2424 11.1255 9.83215 11.2332 9.3833L11.0387 9.33665C10.9397 9.74958 10.7282 10.127 10.4278 10.4272L10.5692 10.5687ZM11.2334 9.38238C11.3005 9.0907 11.3 8.76477 11.3 8.39998H11.1C11.1 8.77118 11.0995 9.07245 11.0385 9.33757L11.2334 9.38238ZM11.3 8.39998V4.39998H11.1V8.39998H11.3ZM11.3 4.39998C11.3 4.03687 11.3005 3.70903 11.2317 3.41704L11.037 3.46291C11.0994 3.72772 11.1 4.03028 11.1 4.39998H11.3ZM11.2316 3.41673C11.1244 2.9678 10.8949 2.55732 10.5687 2.23079L10.4272 2.37214C10.7273 2.67255 10.9384 3.05019 11.0371 3.46322L11.2316 3.41673ZM10.5687 2.23079C10.2424 1.90425 9.83215 1.67441 9.3833 1.56673L9.33665 1.76122C9.74958 1.86028 10.127 2.07173 10.4272 2.37214L10.5687 2.23079ZM9.38238 1.56652C9.0907 1.49946 8.76477 1.49998 8.39998 1.49998V1.69998C8.77118 1.69998 9.07245 1.70049 9.33757 1.76143L9.38238 1.56652ZM8.39998 1.49998H4.47998V1.69998H8.39998V1.49998ZM3.83543 3.31978C3.89012 3.30706 3.98259 3.29998 4.47998 3.29998V3.09998C3.99496 3.09998 3.87303 3.10569 3.79012 3.12497L3.83543 3.31978ZM4.47998 3.29998H8.31997V3.09998H4.47998V3.29998ZM8.31997 3.29998C8.56662 3.29998 8.71449 3.30119 8.80906 3.30451C8.9041 3.30786 8.93885 3.31323 8.96239 3.31926L9.01196 3.1255C8.9667 3.11392 8.91425 3.10809 8.81609 3.10464C8.71746 3.10117 8.56613 3.09998 8.31997 3.09998V3.29998ZM8.96392 3.31963C9.08968 3.34971 9.20465 3.41403 9.29609 3.50546L9.43751 3.36404C9.31995 3.24648 9.17213 3.16378 9.01043 3.12512L8.96392 3.31963ZM9.29609 3.50546C9.38752 3.5969 9.45184 3.71187 9.48192 3.83763L9.67643 3.79112C9.63777 3.62942 9.55507 3.4816 9.43751 3.36404L9.29609 3.50546ZM9.48189 3.83754C9.48747 3.86095 9.49248 3.89586 9.49563 3.99089C9.49877 4.08539 9.49998 4.23338 9.49998 4.47998H9.69998C9.69998 4.23377 9.69878 4.08256 9.69552 3.98426C9.69227 3.88649 9.68688 3.835 9.67646 3.79121L9.48189 3.83754ZM9.49998 4.47998V8.31998H9.69998V4.47998H9.49998ZM9.49998 8.31998C9.49998 8.56662 9.49877 8.71449 9.49544 8.80906C9.49209 8.9041 9.48672 8.93885 9.48069 8.96239L9.67446 9.01196C9.68603 8.96671 9.69186 8.91425 9.69531 8.81609C9.69878 8.71746 9.69998 8.56613 9.69998 8.31998H9.49998ZM9.48032 8.96392C9.45024 9.08968 9.38592 9.20465 9.29449 9.29609L9.43591 9.43751C9.55347 9.31995 9.63617 9.17213 9.67483 9.01043L9.48032 8.96392ZM9.29449 9.29609C9.20305 9.38752 9.08808 9.45184 8.96232 9.48192L9.00883 9.67643C9.17053 9.63777 9.31835 9.55507 9.43591 9.43751L9.29449 9.29609ZM8.96413 9.4815C8.91191 9.49297 8.82019 9.49998 8.31997 9.49998V9.69998C8.80856 9.69998 8.92805 9.69419 9.00702 9.67685L8.96413 9.4815ZM8.31997 9.49998H4.47998V9.69998H8.31997V9.49998ZM4.47998 9.49998C4.23333 9.49998 4.08546 9.49877 3.99089 9.49544C3.89585 9.49209 3.8611 9.48672 3.83756 9.4807L3.78799 9.67446C3.83325 9.68603 3.8857 9.69186 3.98386 9.69531C4.08249 9.69879 4.23382 9.69998 4.47998 9.69998V9.49998ZM3.83603 9.48032C3.71027 9.45024 3.5953 9.38592 3.50386 9.29449L3.36244 9.43591C3.48 9.55347 3.62782 9.63617 3.78952 9.67483L3.83603 9.48032ZM3.50386 9.29449C3.41243 9.20305 3.34811 9.08808 3.31803 8.96232L3.12352 9.00883C3.16218 9.17053 3.24488 9.31835 3.36244 9.43591L3.50386 9.29449ZM3.31845 8.96414C3.30699 8.91191 3.29998 8.82019 3.29998 8.31998H3.09998C3.09998 8.80856 3.10577 8.92805 3.1231 9.00702L3.31845 8.96414ZM3.29998 8.31998V4.47998H3.09998V8.31998H3.29998ZM3.29998 4.47998C3.29998 4.23333 3.30119 4.08546 3.30451 3.99089C3.30786 3.89585 3.31323 3.8611 3.31926 3.83756L3.1255 3.78799C3.11392 3.83325 3.10809 3.8857 3.10464 3.98386C3.10117 4.08249 3.09998 4.23382 3.09998 4.47998H3.29998ZM3.31963 3.83603C3.34971 3.71027 3.41403 3.5953 3.50546 3.50386L3.36404 3.36244C3.24648 3.48 3.16378 3.62782 3.12512 3.78952L3.31963 3.83603ZM3.50546 3.50386C3.5969 3.41243 3.71187 3.34811 3.83763 3.31803L3.79112 3.12352C3.62942 3.16218 3.4816 3.24488 3.36404 3.36244L3.50546 3.50386ZM15.68 1.49998H15.6V1.69998H15.68V1.49998ZM15.6 1.49998C15.2369 1.49998 14.909 1.49944 14.617 1.56824L14.6629 1.76291C14.9277 1.70051 15.2303 1.69998 15.6 1.69998V1.49998ZM14.6167 1.56831C14.1678 1.67559 13.7573 1.90506 13.4308 2.2313L13.5721 2.37278C13.8726 2.07264 14.2502 1.86153 14.6632 1.76284L14.6167 1.56831ZM13.4308 2.2313C13.1043 2.55753 12.8744 2.9678 12.7667 3.41665L12.9612 3.4633C13.0603 3.05037 13.2717 2.67292 13.5721 2.37278L13.4308 2.2313ZM12.7665 3.41757C12.6995 3.70925 12.7 4.03518 12.7 4.39998H12.9C12.9 4.02877 12.9005 3.7275 12.9614 3.46238L12.7665 3.41757ZM12.7 4.39998V8.39998H12.9V4.39998H12.7ZM12.7 8.39998C12.7 8.76308 12.6994 9.09092 12.7682 9.38291L12.9629 9.33704C12.9005 9.07223 12.9 8.76967 12.9 8.39998H12.7ZM12.7683 9.38322C12.8756 9.83216 13.1051 10.2426 13.4313 10.5692L13.5728 10.4278C13.2726 10.1274 13.0615 9.74976 12.9628 9.33673L12.7683 9.38322ZM13.4313 10.5692C13.7575 10.8957 14.1678 11.1255 14.6166 11.2332L14.6633 11.0387C14.2504 10.9397 13.8729 10.7282 13.5728 10.4278L13.4313 10.5692ZM14.6176 11.2334C14.9093 11.3005 15.2352 11.3 15.6 11.3V11.1C15.2288 11.1 14.9275 11.0995 14.6624 11.0385L14.6176 11.2334ZM15.6 11.3H19.6V11.1H15.6V11.3ZM19.6 11.3C19.9631 11.3 20.2909 11.3005 20.5829 11.2317L20.537 11.037C20.2722 11.0994 19.9697 11.1 19.6 11.1V11.3ZM20.5832 11.2316C21.0322 11.1244 21.4426 10.8949 21.7692 10.5687L21.6278 10.4272C21.3274 10.7273 20.9498 10.9384 20.5367 11.0371L20.5832 11.2316ZM21.7692 10.5687C22.0957 10.2424 22.3255 9.83215 22.4332 9.3833L22.2387 9.33665C22.1397 9.74958 21.9282 10.127 21.6278 10.4272L21.7692 10.5687ZM22.4334 9.38238C22.5005 9.0907 22.5 8.76477 22.5 8.39998H22.3C22.3 8.77118 22.2995 9.07245 22.2385 9.33757L22.4334 9.38238ZM22.5 8.39998V4.39998H22.3V8.39998H22.5ZM22.5 4.39998C22.5 4.03687 22.5005 3.70903 22.4317 3.41704L22.237 3.46291C22.2994 3.72772 22.3 4.03028 22.3 4.39998H22.5ZM22.4316 3.41673C22.3244 2.9678 22.0949 2.55732 21.7687 2.23079L21.6272 2.37214C21.9273 2.67255 22.1384 3.05019 22.2371 3.46322L22.4316 3.41673ZM21.7687 2.23079C21.4424 1.90425 21.0321 1.67441 20.5833 1.56673L20.5366 1.76122C20.9496 1.86028 21.327 2.07173 21.6272 2.37214L21.7687 2.23079ZM20.5824 1.56652C20.2907 1.49946 19.9648 1.49998 19.6 1.49998V1.69998C19.9712 1.69998 20.2725 1.70049 20.5376 1.76143L20.5824 1.56652ZM19.6 1.49998H15.68V1.69998H19.6V1.49998ZM15.0354 3.31978C15.0901 3.30706 15.1826 3.29998 15.68 3.29998V3.09998C15.195 3.09998 15.073 3.10569 14.9901 3.12497L15.0354 3.31978ZM15.68 3.29998H19.52V3.09998H15.68V3.29998ZM19.52 3.29998C19.7666 3.29998 19.9145 3.30119 20.0091 3.30451C20.1041 3.30786 20.1388 3.31323 20.1624 3.31926L20.212 3.1255C20.1667 3.11392 20.1142 3.10809 20.0161 3.10464C19.9175 3.10117 19.7661 3.09998 19.52 3.09998V3.29998ZM20.1639 3.31963C20.2897 3.34971 20.4047 3.41403 20.4961 3.50546L20.6375 3.36404C20.5199 3.24648 20.3721 3.16378 20.2104 3.12512L20.1639 3.31963ZM20.4961 3.50546C20.5875 3.5969 20.6518 3.71187 20.6819 3.83763L20.8764 3.79112C20.8378 3.62942 20.7551 3.4816 20.6375 3.36404L20.4961 3.50546ZM20.6819 3.83754C20.6875 3.86095 20.6925 3.89586 20.6956 3.99089C20.6988 4.08539 20.7 4.23338 20.7 4.47998H20.9C20.9 4.23377 20.8988 4.08256 20.8955 3.98426C20.8923 3.88649 20.8869 3.835 20.8765 3.79121L20.6819 3.83754ZM20.7 4.47998V8.31998H20.9V4.47998H20.7ZM20.7 8.31998C20.7 8.81894 20.6929 8.90983 20.6802 8.96452L20.875 9.00983C20.8943 8.92692 20.9 8.80661 20.9 8.31998H20.7ZM20.6803 8.96392C20.6502 9.08968 20.5859 9.20465 20.4945 9.29609L20.6359 9.43751C20.7535 9.31995 20.8362 9.17213 20.8748 9.01043L20.6803 8.96392ZM20.4945 9.29609C20.4031 9.38752 20.2881 9.45184 20.1623 9.48192L20.2088 9.67643C20.3705 9.63777 20.5184 9.55507 20.6359 9.43751L20.4945 9.29609ZM20.1624 9.48189C20.139 9.48747 20.1041 9.49248 20.0091 9.49563C19.9146 9.49877 19.7666 9.49998 19.52 9.49998V9.69998C19.7662 9.69998 19.9174 9.69878 20.0157 9.69552C20.1135 9.69228 20.1649 9.68688 20.2087 9.67646L20.1624 9.48189ZM19.52 9.49998H15.68V9.69998H19.52V9.49998ZM15.68 9.49998C15.4333 9.49998 15.2855 9.49877 15.1909 9.49544C15.0958 9.49209 15.0611 9.48672 15.0376 9.4807L14.988 9.67446C15.0332 9.68603 15.0857 9.69186 15.1839 9.69531C15.2825 9.69879 15.4338 9.69998 15.68 9.69998V9.49998ZM15.036 9.48032C14.9103 9.45024 14.7953 9.38592 14.7039 9.29449L14.5624 9.43591C14.68 9.55347 14.8278 9.63617 14.9895 9.67483L15.036 9.48032ZM14.7039 9.29449C14.6124 9.20305 14.5481 9.08808 14.518 8.96232L14.3235 9.00883C14.3622 9.17053 14.4449 9.31835 14.5624 9.43591L14.7039 9.29449ZM14.5184 8.96414C14.507 8.91191 14.5 8.82019 14.5 8.31998H14.3C14.3 8.80856 14.3058 8.92805 14.3231 9.00702L14.5184 8.96414ZM14.5 8.31998V4.47998H14.3V8.31998H14.5ZM14.5 4.47998C14.5 4.23333 14.5012 4.08546 14.5045 3.99089C14.5079 3.89585 14.5132 3.8611 14.5193 3.83756L14.3255 3.78799C14.3139 3.83325 14.3081 3.8857 14.3046 3.98386C14.3012 4.08249 14.3 4.23382 14.3 4.47998H14.5ZM14.5196 3.83603C14.5497 3.71027 14.614 3.5953 14.7055 3.50386L14.564 3.36244C14.4465 3.48 14.3638 3.62782 14.3251 3.78952L14.5196 3.83603ZM14.7055 3.50386C14.7969 3.41243 14.9119 3.34811 15.0376 3.31803L14.9911 3.12352C14.8294 3.16218 14.6816 3.24488 14.564 3.36244L14.7055 3.50386ZM4.39998 12.9H8.39998V12.7H4.39998V12.9ZM8.39998 12.9C8.76967 12.9 9.07223 12.9005 9.33704 12.9629L9.38291 12.7682C9.09092 12.6994 8.76308 12.7 8.39998 12.7V12.9ZM9.33673 12.9628C9.74976 13.0615 10.1274 13.2726 10.4278 13.5728L10.5692 13.4313C10.2426 13.1051 9.83216 12.8756 9.38322 12.7683L9.33673 12.9628ZM10.4278 13.5728C10.7282 13.8729 10.9397 14.2504 11.0387 14.6633L11.2332 14.6166C11.1255 14.1678 10.8957 13.7575 10.5692 13.4313L10.4278 13.5728ZM11.0385 14.6624C11.0995 14.9275 11.1 15.2288 11.1 15.6H11.3C11.3 15.2352 11.3005 14.9093 11.2334 14.6176L11.0385 14.6624ZM11.1 15.6V19.6H11.3V15.6H11.1ZM11.1 19.6C11.1 19.9697 11.0994 20.2722 11.037 20.537L11.2317 20.5829C11.3005 20.2909 11.3 19.9631 11.3 19.6H11.1ZM11.0371 20.5367C10.9384 20.9498 10.7273 21.3274 10.4272 21.6278L10.5687 21.7692C10.8949 21.4426 11.1244 21.0322 11.2316 20.5832L11.0371 20.5367ZM10.4272 21.6278C10.127 21.9282 9.74958 22.1397 9.33665 22.2387L9.3833 22.4332C9.83215 22.3255 10.2424 22.0957 10.5687 21.7692L10.4272 21.6278ZM9.33757 22.2385C9.07245 22.2995 8.77118 22.3 8.39998 22.3V22.5C8.76477 22.5 9.0907 22.5005 9.38238 22.4334L9.33757 22.2385ZM8.39998 22.3H4.39998V22.5H8.39998V22.3ZM4.39998 22.3C4.03028 22.3 3.72772 22.2994 3.46291 22.237L3.41704 22.4317C3.70903 22.5005 4.03687 22.5 4.39998 22.5V22.3ZM3.46322 22.2371C3.05019 22.1384 2.67255 21.9273 2.37214 21.6272L2.23079 21.7687C2.55732 22.0949 2.96779 22.3244 3.41673 22.4316L3.46322 22.2371ZM2.37214 21.6272C2.07173 21.327 1.86028 20.9496 1.76122 20.5366L1.56673 20.5833C1.67441 21.0321 1.90425 21.4424 2.23079 21.7687L2.37214 21.6272ZM1.76143 20.5376C1.70049 20.2725 1.69998 19.9712 1.69998 19.6H1.49998C1.49998 19.9648 1.49946 20.2907 1.56652 20.5824L1.76143 20.5376ZM1.69998 19.6V15.6H1.49998V19.6H1.69998ZM1.69998 15.6C1.69998 15.2303 1.70051 14.9277 1.76291 14.6629L1.56824 14.617C1.49944 14.909 1.49998 15.2369 1.49998 15.6H1.69998ZM1.76284 14.6632C1.86153 14.2502 2.07264 13.8726 2.37278 13.5721L2.2313 13.4308C1.90506 13.7573 1.67559 14.1678 1.56831 14.6167L1.76284 14.6632ZM2.37278 13.5721C2.67292 13.2717 3.05037 13.0603 3.4633 12.9612L3.41665 12.7667C2.9678 12.8744 2.55753 13.1043 2.2313 13.4308L2.37278 13.5721ZM3.46238 12.9614C3.7275 12.9005 4.02877 12.9 4.39998 12.9V12.7C4.03518 12.7 3.70925 12.6995 3.41757 12.7665L3.46238 12.9614ZM4.47998 14.3C4.23382 14.3 4.08249 14.3012 3.98386 14.3046C3.8857 14.3081 3.83325 14.3139 3.78799 14.3255L3.83756 14.5193C3.8611 14.5132 3.89585 14.5079 3.99089 14.5045C4.08546 14.5012 4.23333 14.5 4.47998 14.5V14.3ZM3.78952 14.3251C3.62782 14.3638 3.48 14.4465 3.36244 14.564L3.50386 14.7055C3.5953 14.614 3.71027 14.5497 3.83603 14.5196L3.78952 14.3251ZM3.36244 14.564C3.24488 14.6816 3.16218 14.8294 3.12352 14.9911L3.31803 15.0376C3.34811 14.9119 3.41243 14.7969 3.50386 14.7055L3.36244 14.564ZM3.1231 14.9929C3.10577 15.0719 3.09998 15.1914 3.09998 15.68H3.29998C3.29998 15.1798 3.30699 15.088 3.31845 15.0358L3.1231 14.9929ZM3.09998 15.68V19.52H3.29998V15.68H3.09998ZM3.09998 19.52C3.09998 19.7661 3.10117 19.9175 3.10464 20.0161C3.10809 20.1142 3.11392 20.1667 3.1255 20.212L3.31926 20.1624C3.31323 20.1388 3.30786 20.1041 3.30451 20.0091C3.30119 19.9145 3.29998 19.7666 3.29998 19.52H3.09998ZM3.12512 20.2104C3.16378 20.3721 3.24648 20.52 3.36404 20.6375L3.50546 20.4961C3.41403 20.4047 3.34971 20.2897 3.31963 20.1639L3.12512 20.2104ZM3.36404 20.6375C3.4816 20.7551 3.62942 20.8378 3.79112 20.8764L3.83763 20.6819C3.71187 20.6518 3.5969 20.5875 3.50546 20.4961L3.36404 20.6375ZM3.79121 20.8765C3.835 20.8869 3.88649 20.8923 3.98426 20.8955C4.08256 20.8988 4.23377 20.9 4.47998 20.9V20.7C4.23338 20.7 4.08539 20.6988 3.99089 20.6956C3.89586 20.6925 3.86095 20.6875 3.83754 20.6819L3.79121 20.8765ZM4.47998 20.9H8.31997V20.7H4.47998V20.9ZM8.31997 20.9C8.80661 20.9 8.92692 20.8943 9.00983 20.875L8.96452 20.6802C8.90983 20.6929 8.81894 20.7 8.31997 20.7V20.9ZM9.01043 20.8748C9.17213 20.8362 9.31995 20.7535 9.43751 20.6359L9.29609 20.4945C9.20465 20.5859 9.08968 20.6502 8.96392 20.6803L9.01043 20.8748ZM9.43751 20.6359C9.55507 20.5184 9.63777 20.3705 9.67643 20.2088L9.48192 20.1623C9.45184 20.2881 9.38752 20.4031 9.29609 20.4945L9.43751 20.6359ZM9.67646 20.2087C9.68688 20.1649 9.69227 20.1135 9.69552 20.0157C9.69878 19.9174 9.69998 19.7662 9.69998 19.52H9.49998C9.49998 19.7666 9.49877 19.9146 9.49563 20.0091C9.49248 20.1041 9.48747 20.139 9.48189 20.1624L9.67646 20.2087ZM9.69998 19.52V15.68H9.49998V19.52H9.69998ZM9.69998 15.68C9.69998 15.4338 9.69878 15.2825 9.69531 15.1839C9.69186 15.0857 9.68603 15.0332 9.67446 14.988L9.48069 15.0376C9.48672 15.0611 9.49209 15.0958 9.49544 15.1909C9.49877 15.2855 9.49998 15.4333 9.49998 15.68H9.69998ZM9.67483 14.9895C9.63617 14.8278 9.55347 14.68 9.43591 14.5624L9.29449 14.7039C9.38592 14.7953 9.45024 14.9103 9.48032 15.036L9.67483 14.9895ZM9.43591 14.5624C9.31835 14.4449 9.17053 14.3622 9.00883 14.3235L8.96232 14.518C9.08808 14.5481 9.20305 14.6124 9.29449 14.7039L9.43591 14.5624ZM9.00702 14.3231C8.92805 14.3058 8.80856 14.3 8.31997 14.3V14.5C8.82019 14.5 8.91191 14.507 8.96413 14.5184L9.00702 14.3231ZM8.31997 14.3H4.47998V14.5H8.31997V14.3ZM15.68 12.7H15.6V12.9H15.68V12.7ZM15.6 12.7C15.2369 12.7 14.909 12.6994 14.617 12.7682L14.6629 12.9629C14.9277 12.9005 15.2303 12.9 15.6 12.9V12.7ZM14.6167 12.7683C14.1678 12.8756 13.7573 13.1051 13.4308 13.4313L13.5721 13.5728C13.8726 13.2726 14.2502 13.0615 14.6632 12.9628L14.6167 12.7683ZM13.4308 13.4313C13.1043 13.7575 12.8744 14.1678 12.7667 14.6166L12.9612 14.6633C13.0603 14.2504 13.2717 13.8729 13.5721 13.5728L13.4308 13.4313ZM12.7665 14.6176C12.6995 14.9093 12.7 15.2352 12.7 15.6H12.9C12.9 15.2288 12.9005 14.9275 12.9614 14.6624L12.7665 14.6176ZM12.7 15.6V19.6H12.9V15.6H12.7ZM12.7 19.6C12.7 19.9631 12.6994 20.2909 12.7682 20.5829L12.9629 20.537C12.9005 20.2722 12.9 19.9697 12.9 19.6H12.7ZM12.7683 20.5832C12.8756 21.0322 13.1051 21.4426 13.4313 21.7692L13.5728 21.6278C13.2726 21.3274 13.0615 20.9498 12.9628 20.5367L12.7683 20.5832ZM13.4313 21.7692C13.7575 22.0957 14.1678 22.3255 14.6166 22.4332L14.6633 22.2387C14.2504 22.1397 13.8729 21.9282 13.5728 21.6278L13.4313 21.7692ZM14.617 22.4333C14.909 22.5021 15.2369 22.5016 15.6 22.5016V22.3016C15.2303 22.3016 14.9277 22.301 14.6629 22.2386L14.617 22.4333ZM15.6 22.5016H19.6V22.3016H15.6V22.5016ZM19.6 22.5016C19.9631 22.5016 20.2909 22.5021 20.5829 22.4333L20.537 22.2386C20.2722 22.301 19.9697 22.3016 19.6 22.3016V22.5016ZM20.5833 22.4332C21.0319 22.3257 21.442 22.0961 21.7683 21.7699L21.6268 21.6284C21.3267 21.9286 20.9494 22.1398 20.5367 22.2387L20.5833 22.4332ZM21.7683 21.7699C22.0945 21.4436 22.3241 21.0335 22.4316 20.5849L22.2371 20.5383C22.1382 20.951 21.927 21.3283 21.6268 21.6284L21.7683 21.7699ZM22.4317 20.5845C22.5005 20.2925 22.5 19.9647 22.5 19.6016H22.3C22.3 19.9713 22.2994 20.2738 22.237 20.5386L22.4317 20.5845ZM22.5 19.6016V15.6016H22.3V19.6016H22.5ZM22.5 15.6016C22.5 15.2385 22.5005 14.9106 22.4317 14.6186L22.237 14.6645C22.2994 14.9293 22.3 15.2319 22.3 15.6016H22.5ZM22.4317 14.6184C22.3246 14.1692 22.0953 13.7583 21.769 13.4315L21.6275 13.5728C21.9277 13.8735 22.1387 14.2514 22.2371 14.6647L22.4317 14.6184ZM21.769 13.4315C21.4428 13.1046 21.0324 12.8746 20.5833 12.7667L20.5366 12.9612C20.9498 13.0604 21.3273 13.2721 21.6275 13.5728L21.769 13.4315ZM20.5824 12.7665C20.2907 12.6995 19.9648 12.7 19.6 12.7V12.9C19.9712 12.9 20.2725 12.9005 20.5376 12.9614L20.5824 12.7665ZM19.6 12.7H15.68V12.9H19.6V12.7ZM15.0354 14.5198C15.0901 14.5071 15.1826 14.5 15.68 14.5V14.3C15.195 14.3 15.073 14.3057 14.9901 14.325L15.0354 14.5198ZM15.68 14.5H19.52V14.3H15.68V14.5ZM19.52 14.5C19.7666 14.5 19.9145 14.5012 20.0091 14.5045C20.1041 14.5079 20.1388 14.5132 20.1624 14.5193L20.212 14.3255C20.1667 14.3139 20.1142 14.3081 20.0161 14.3046C19.9175 14.3012 19.7661 14.3 19.52 14.3V14.5ZM20.1639 14.5196C20.2897 14.5497 20.4047 14.614 20.4961 14.7055L20.6375 14.564C20.5199 14.4465 20.3721 14.3638 20.2104 14.3251L20.1639 14.5196ZM20.4961 14.7055C20.5875 14.7969 20.6518 14.9119 20.6819 15.0376L20.8764 14.9911C20.8378 14.8294 20.7551 14.6816 20.6375 14.564L20.4961 14.7055ZM20.6819 15.0375C20.6875 15.0609 20.6925 15.0959 20.6956 15.1909C20.6988 15.2854 20.7 15.4334 20.7 15.68H20.9C20.9 15.4338 20.8988 15.2826 20.8955 15.1843C20.8923 15.0865 20.8869 15.035 20.8765 14.9912L20.6819 15.0375ZM20.7 15.68V19.52H20.9V15.68H20.7ZM20.7 19.52C20.7 20.0189 20.6929 20.1098 20.6802 20.1645L20.875 20.2098C20.8943 20.1269 20.9 20.0066 20.9 19.52H20.7ZM20.6803 20.1639C20.6502 20.2897 20.5859 20.4047 20.4945 20.4961L20.6359 20.6375C20.7535 20.52 20.8362 20.3721 20.8748 20.2104L20.6803 20.1639ZM20.4945 20.4961C20.4031 20.5875 20.2881 20.6518 20.1623 20.6819L20.2088 20.8764C20.3705 20.8378 20.5184 20.7551 20.6359 20.6375L20.4945 20.4961ZM20.1624 20.6819C20.139 20.6875 20.1041 20.6925 20.0091 20.6956C19.9146 20.6988 19.7666 20.7 19.52 20.7V20.9C19.7662 20.9 19.9174 20.8988 20.0157 20.8955C20.1135 20.8923 20.1649 20.8869 20.2087 20.8765L20.1624 20.6819ZM19.52 20.7H15.68V20.9H19.52V20.7ZM15.68 20.7C15.181 20.7 15.0901 20.6929 15.0354 20.6802L14.9901 20.875C15.073 20.8943 15.1933 20.9 15.68 20.9V20.7ZM15.036 20.6803C14.9103 20.6502 14.7953 20.5859 14.7039 20.4945L14.5624 20.6359C14.68 20.7535 14.8278 20.8362 14.9895 20.8748L15.036 20.6803ZM14.7039 20.4945C14.6124 20.4031 14.5481 20.2881 14.518 20.1623L14.3235 20.2088C14.3622 20.3705 14.4449 20.5184 14.5624 20.6359L14.7039 20.4945ZM14.5184 20.1641C14.507 20.1119 14.5 20.0202 14.5 19.52H14.3C14.3 20.0086 14.3058 20.128 14.3231 20.207L14.5184 20.1641ZM14.5 19.52V15.68H14.3V19.52H14.5ZM14.5 15.68C14.5 15.4333 14.5012 15.2855 14.5045 15.1909C14.5079 15.0958 14.5132 15.0611 14.5193 15.0376L14.3255 14.988C14.3139 15.0332 14.3081 15.0857 14.3046 15.1839C14.3012 15.2825 14.3 15.4338 14.3 15.68H14.5ZM14.5196 15.036C14.5497 14.9103 14.614 14.7953 14.7055 14.7039L14.564 14.5624C14.4465 14.68 14.3638 14.8278 14.3251 14.9895L14.5196 15.036ZM14.7055 14.7039C14.7969 14.6124 14.9119 14.5481 15.0376 14.518L14.9911 14.3235C14.8294 14.3622 14.6816 14.4449 14.564 14.5624L14.7055 14.7039Z" fill="#1559A8" mask="url(#path-1-outside-1_3943_789)"/>
<path d="M3.43998 1.66558L3.41704 1.56824L3.41673 1.56831L3.43998 1.66558ZM1.66398 3.43998L1.56673 3.41665L1.56652 3.41757L1.66398 3.43998ZM1.66558 9.35998L1.56824 9.38291L1.56831 9.38322L1.66558 9.35998ZM3.43998 11.136L3.41665 11.2332L3.41757 11.2334L3.43998 11.136ZM9.35997 11.1344L9.38291 11.2317L9.38322 11.2316L9.35997 11.1344ZM11.136 9.35998L11.2332 9.38331L11.2334 9.38238L11.136 9.35998ZM11.1344 3.43998L11.2317 3.41704L11.2316 3.41673L11.1344 3.43998ZM9.35997 1.66398L9.3833 1.56673L9.38238 1.56652L9.35997 1.66398ZM8.98718 3.22238L8.96239 3.31927L8.96392 3.31963L8.98718 3.22238ZM9.57917 3.81438L9.67646 3.79121L9.67643 3.79112L9.57917 3.81438ZM9.57758 8.98718L9.48068 8.96239L9.48032 8.96392L9.57758 8.98718ZM8.98558 9.57918L9.00702 9.67687L9.00883 9.67643L8.98558 9.57918ZM3.81278 9.57758L3.83756 9.48068L3.83603 9.48032L3.81278 9.57758ZM3.22078 8.98558L3.12308 9.00702L3.12352 9.00883L3.22078 8.98558ZM3.22238 3.81278L3.31927 3.83756L3.31963 3.83603L3.22238 3.81278ZM14.64 1.66558L14.617 1.56824L14.6167 1.56831L14.64 1.66558ZM12.864 3.43998L12.7667 3.41665L12.7665 3.41757L12.864 3.43998ZM12.8656 9.35998L12.7682 9.38291L12.7683 9.38322L12.8656 9.35998ZM14.64 11.136L14.6166 11.2332L14.6176 11.2334L14.64 11.136ZM20.56 11.1344L20.5829 11.2317L20.5832 11.2316L20.56 11.1344ZM22.336 9.35998L22.4332 9.38331L22.4334 9.38238L22.336 9.35998ZM22.3344 3.43998L22.4317 3.41704L22.4316 3.41673L22.3344 3.43998ZM20.56 1.66398L20.5833 1.56673L20.5824 1.56652L20.56 1.66398ZM20.1872 3.22238L20.1624 3.31927L20.1639 3.31963L20.1872 3.22238ZM20.7792 3.81438L20.8765 3.79121L20.8764 3.79112L20.7792 3.81438ZM20.7776 8.98718L20.8748 9.01043L20.875 9.00983L20.7776 8.98718ZM20.1856 9.57918L20.2087 9.67646L20.2088 9.67643L20.1856 9.57918ZM15.0128 9.57758L15.0376 9.48068L15.036 9.48032L15.0128 9.57758ZM14.4208 8.98558L14.3231 9.00702L14.3235 9.00883L14.4208 8.98558ZM14.4224 3.81278L14.5193 3.83756L14.5196 3.83603L14.4224 3.81278ZM9.35997 12.8656L9.38322 12.7683L9.38291 12.7682L9.35997 12.8656ZM11.136 14.64L11.2334 14.6176L11.2332 14.6166L11.136 14.64ZM11.1344 20.56L11.2316 20.5832L11.2317 20.5829L11.1344 20.56ZM9.35997 22.336L9.38238 22.4334L9.3833 22.4332L9.35997 22.336ZM3.43998 22.3344L3.41673 22.4316L3.41704 22.4317L3.43998 22.3344ZM1.66398 20.56L1.56651 20.5824L1.56673 20.5833L1.66398 20.56ZM1.66558 14.64L1.56831 14.6167L1.56824 14.617L1.66558 14.64ZM3.43998 12.864L3.41757 12.7665L3.41665 12.7667L3.43998 12.864ZM3.81278 14.4224L3.83604 14.5196L3.83756 14.5193L3.81278 14.4224ZM3.22078 15.0144L3.1235 14.9911L3.1231 14.9929L3.22078 15.0144ZM3.22238 20.1872L3.31965 20.1639L3.31926 20.1624L3.22238 20.1872ZM3.81438 20.7792L3.79112 20.8764L3.79121 20.8765L3.81438 20.7792ZM8.98718 20.7776L9.00983 20.875L9.01043 20.8748L8.98718 20.7776ZM9.57917 20.1856L9.67643 20.2088L9.67646 20.2087L9.57917 20.1856ZM9.57758 15.0128L9.48031 15.036L9.48069 15.0376L9.57758 15.0128ZM8.98558 14.4208L9.00884 14.3235L9.00702 14.3231L8.98558 14.4208ZM14.64 12.8656L14.617 12.7682L14.6167 12.7683L14.64 12.8656ZM12.864 14.64L12.7667 14.6166L12.7665 14.6176L12.864 14.64ZM12.8656 20.56L12.7682 20.5829L12.7683 20.5832L12.8656 20.56ZM14.64 22.336L14.6166 22.4332L14.617 22.4333L14.64 22.336ZM20.56 22.336L20.5829 22.4333L20.5833 22.4332L20.56 22.336ZM22.3344 20.5616L22.4316 20.5849L22.4317 20.5845L22.3344 20.5616ZM22.3344 14.6416L22.4317 14.6186L22.4317 14.6184L22.3344 14.6416ZM20.56 12.864L20.5833 12.7667L20.5824 12.7665L20.56 12.864ZM20.1872 14.4224L20.1624 14.5193L20.1639 14.5196L20.1872 14.4224ZM20.7792 15.0144L20.8765 14.9912L20.8764 14.9911L20.7792 15.0144ZM20.7776 20.1872L20.8748 20.2104L20.875 20.2098L20.7776 20.1872ZM20.1856 20.7792L20.2087 20.8765L20.2088 20.8764L20.1856 20.7792ZM15.0128 20.7776L14.9895 20.8748L14.9901 20.875L15.0128 20.7776ZM14.4208 20.1856L14.3231 20.207L14.3235 20.2088L14.4208 20.1856ZM14.4224 15.0128L14.5193 15.0376L14.5196 15.036L14.4224 15.0128ZM4.47998 1.49998H4.39998V1.69998H4.47998V1.49998ZM4.39998 1.49998C4.03687 1.49998 3.70903 1.49944 3.41704 1.56824L3.46291 1.76291C3.72772 1.70051 4.03028 1.69998 4.39998 1.69998V1.49998ZM3.41673 1.56831C2.96779 1.67559 2.55732 1.90506 2.23079 2.2313L2.37214 2.37278C2.67255 2.07264 3.05019 1.86153 3.46322 1.76284L3.41673 1.56831ZM2.23079 2.2313C1.90425 2.55753 1.67441 2.9678 1.56673 3.41665L1.76122 3.4633C1.86028 3.05037 2.07173 2.67292 2.37214 2.37278L2.23079 2.2313ZM1.56652 3.41757C1.49946 3.70925 1.49998 4.03518 1.49998 4.39998H1.69998C1.69998 4.02877 1.70049 3.7275 1.76143 3.46238L1.56652 3.41757ZM1.49998 4.39998V8.39998H1.69998V4.39998H1.49998ZM1.49998 8.39998C1.49998 8.76308 1.49944 9.09092 1.56824 9.38291L1.76291 9.33704C1.70051 9.07223 1.69998 8.76967 1.69998 8.39998H1.49998ZM1.56831 9.38322C1.67559 9.83216 1.90506 10.2426 2.2313 10.5692L2.37278 10.4278C2.07264 10.1274 1.86153 9.74976 1.76284 9.33673L1.56831 9.38322ZM2.2313 10.5692C2.55753 10.8957 2.9678 11.1255 3.41665 11.2332L3.4633 11.0387C3.05037 10.9397 2.67292 10.7282 2.37278 10.4278L2.2313 10.5692ZM3.41757 11.2334C3.70925 11.3005 4.03518 11.3 4.39998 11.3V11.1C4.02877 11.1 3.7275 11.0995 3.46238 11.0385L3.41757 11.2334ZM4.39998 11.3H8.39998V11.1H4.39998V11.3ZM8.39998 11.3C8.76308 11.3 9.09092 11.3005 9.38291 11.2317L9.33704 11.037C9.07223 11.0994 8.76967 11.1 8.39998 11.1V11.3ZM9.38322 11.2316C9.83216 11.1244 10.2426 10.8949 10.5692 10.5687L10.4278 10.4272C10.1274 10.7273 9.74976 10.9384 9.33673 11.0371L9.38322 11.2316ZM10.5692 10.5687C10.8957 10.2424 11.1255 9.83215 11.2332 9.3833L11.0387 9.33665C10.9397 9.74958 10.7282 10.127 10.4278 10.4272L10.5692 10.5687ZM11.2334 9.38238C11.3005 9.0907 11.3 8.76477 11.3 8.39998H11.1C11.1 8.77118 11.0995 9.07245 11.0385 9.33757L11.2334 9.38238ZM11.3 8.39998V4.39998H11.1V8.39998H11.3ZM11.3 4.39998C11.3 4.03687 11.3005 3.70903 11.2317 3.41704L11.037 3.46291C11.0994 3.72772 11.1 4.03028 11.1 4.39998H11.3ZM11.2316 3.41673C11.1244 2.9678 10.8949 2.55732 10.5687 2.23079L10.4272 2.37214C10.7273 2.67255 10.9384 3.05019 11.0371 3.46322L11.2316 3.41673ZM10.5687 2.23079C10.2424 1.90425 9.83215 1.67441 9.3833 1.56673L9.33665 1.76122C9.74958 1.86028 10.127 2.07173 10.4272 2.37214L10.5687 2.23079ZM9.38238 1.56652C9.0907 1.49946 8.76477 1.49998 8.39998 1.49998V1.69998C8.77118 1.69998 9.07245 1.70049 9.33757 1.76143L9.38238 1.56652ZM8.39998 1.49998H4.47998V1.69998H8.39998V1.49998ZM3.83543 3.31978C3.89012 3.30706 3.98259 3.29998 4.47998 3.29998V3.09998C3.99496 3.09998 3.87303 3.10569 3.79012 3.12497L3.83543 3.31978ZM4.47998 3.29998H8.31997V3.09998H4.47998V3.29998ZM8.31997 3.29998C8.56662 3.29998 8.71449 3.30119 8.80906 3.30451C8.9041 3.30786 8.93885 3.31323 8.96239 3.31926L9.01196 3.1255C8.9667 3.11392 8.91425 3.10809 8.81609 3.10464C8.71746 3.10117 8.56613 3.09998 8.31997 3.09998V3.29998ZM8.96392 3.31963C9.08968 3.34971 9.20465 3.41403 9.29609 3.50546L9.43751 3.36404C9.31995 3.24648 9.17213 3.16378 9.01043 3.12512L8.96392 3.31963ZM9.29609 3.50546C9.38752 3.5969 9.45184 3.71187 9.48192 3.83763L9.67643 3.79112C9.63777 3.62942 9.55507 3.4816 9.43751 3.36404L9.29609 3.50546ZM9.48189 3.83754C9.48747 3.86095 9.49248 3.89586 9.49563 3.99089C9.49877 4.08539 9.49998 4.23338 9.49998 4.47998H9.69998C9.69998 4.23377 9.69878 4.08256 9.69552 3.98426C9.69227 3.88649 9.68688 3.835 9.67646 3.79121L9.48189 3.83754ZM9.49998 4.47998V8.31998H9.69998V4.47998H9.49998ZM9.49998 8.31998C9.49998 8.56662 9.49877 8.71449 9.49544 8.80906C9.49209 8.9041 9.48672 8.93885 9.48069 8.96239L9.67446 9.01196C9.68603 8.96671 9.69186 8.91425 9.69531 8.81609C9.69878 8.71746 9.69998 8.56613 9.69998 8.31998H9.49998ZM9.48032 8.96392C9.45024 9.08968 9.38592 9.20465 9.29449 9.29609L9.43591 9.43751C9.55347 9.31995 9.63617 9.17213 9.67483 9.01043L9.48032 8.96392ZM9.29449 9.29609C9.20305 9.38752 9.08808 9.45184 8.96232 9.48192L9.00883 9.67643C9.17053 9.63777 9.31835 9.55507 9.43591 9.43751L9.29449 9.29609ZM8.96413 9.4815C8.91191 9.49297 8.82019 9.49998 8.31997 9.49998V9.69998C8.80856 9.69998 8.92805 9.69419 9.00702 9.67685L8.96413 9.4815ZM8.31997 9.49998H4.47998V9.69998H8.31997V9.49998ZM4.47998 9.49998C4.23333 9.49998 4.08546 9.49877 3.99089 9.49544C3.89585 9.49209 3.8611 9.48672 3.83756 9.4807L3.78799 9.67446C3.83325 9.68603 3.8857 9.69186 3.98386 9.69531C4.08249 9.69879 4.23382 9.69998 4.47998 9.69998V9.49998ZM3.83603 9.48032C3.71027 9.45024 3.5953 9.38592 3.50386 9.29449L3.36244 9.43591C3.48 9.55347 3.62782 9.63617 3.78952 9.67483L3.83603 9.48032ZM3.50386 9.29449C3.41243 9.20305 3.34811 9.08808 3.31803 8.96232L3.12352 9.00883C3.16218 9.17053 3.24488 9.31835 3.36244 9.43591L3.50386 9.29449ZM3.31845 8.96414C3.30699 8.91191 3.29998 8.82019 3.29998 8.31998H3.09998C3.09998 8.80856 3.10577 8.92805 3.1231 9.00702L3.31845 8.96414ZM3.29998 8.31998V4.47998H3.09998V8.31998H3.29998ZM3.29998 4.47998C3.29998 4.23333 3.30119 4.08546 3.30451 3.99089C3.30786 3.89585 3.31323 3.8611 3.31926 3.83756L3.1255 3.78799C3.11392 3.83325 3.10809 3.8857 3.10464 3.98386C3.10117 4.08249 3.09998 4.23382 3.09998 4.47998H3.29998ZM3.31963 3.83603C3.34971 3.71027 3.41403 3.5953 3.50546 3.50386L3.36404 3.36244C3.24648 3.48 3.16378 3.62782 3.12512 3.78952L3.31963 3.83603ZM3.50546 3.50386C3.5969 3.41243 3.71187 3.34811 3.83763 3.31803L3.79112 3.12352C3.62942 3.16218 3.4816 3.24488 3.36404 3.36244L3.50546 3.50386ZM15.68 1.49998H15.6V1.69998H15.68V1.49998ZM15.6 1.49998C15.2369 1.49998 14.909 1.49944 14.617 1.56824L14.6629 1.76291C14.9277 1.70051 15.2303 1.69998 15.6 1.69998V1.49998ZM14.6167 1.56831C14.1678 1.67559 13.7573 1.90506 13.4308 2.2313L13.5721 2.37278C13.8726 2.07264 14.2502 1.86153 14.6632 1.76284L14.6167 1.56831ZM13.4308 2.2313C13.1043 2.55753 12.8744 2.9678 12.7667 3.41665L12.9612 3.4633C13.0603 3.05037 13.2717 2.67292 13.5721 2.37278L13.4308 2.2313ZM12.7665 3.41757C12.6995 3.70925 12.7 4.03518 12.7 4.39998H12.9C12.9 4.02877 12.9005 3.7275 12.9614 3.46238L12.7665 3.41757ZM12.7 4.39998V8.39998H12.9V4.39998H12.7ZM12.7 8.39998C12.7 8.76308 12.6994 9.09092 12.7682 9.38291L12.9629 9.33704C12.9005 9.07223 12.9 8.76967 12.9 8.39998H12.7ZM12.7683 9.38322C12.8756 9.83216 13.1051 10.2426 13.4313 10.5692L13.5728 10.4278C13.2726 10.1274 13.0615 9.74976 12.9628 9.33673L12.7683 9.38322ZM13.4313 10.5692C13.7575 10.8957 14.1678 11.1255 14.6166 11.2332L14.6633 11.0387C14.2504 10.9397 13.8729 10.7282 13.5728 10.4278L13.4313 10.5692ZM14.6176 11.2334C14.9093 11.3005 15.2352 11.3 15.6 11.3V11.1C15.2288 11.1 14.9275 11.0995 14.6624 11.0385L14.6176 11.2334ZM15.6 11.3H19.6V11.1H15.6V11.3ZM19.6 11.3C19.9631 11.3 20.2909 11.3005 20.5829 11.2317L20.537 11.037C20.2722 11.0994 19.9697 11.1 19.6 11.1V11.3ZM20.5832 11.2316C21.0322 11.1244 21.4426 10.8949 21.7692 10.5687L21.6278 10.4272C21.3274 10.7273 20.9498 10.9384 20.5367 11.0371L20.5832 11.2316ZM21.7692 10.5687C22.0957 10.2424 22.3255 9.83215 22.4332 9.3833L22.2387 9.33665C22.1397 9.74958 21.9282 10.127 21.6278 10.4272L21.7692 10.5687ZM22.4334 9.38238C22.5005 9.0907 22.5 8.76477 22.5 8.39998H22.3C22.3 8.77118 22.2995 9.07245 22.2385 9.33757L22.4334 9.38238ZM22.5 8.39998V4.39998H22.3V8.39998H22.5ZM22.5 4.39998C22.5 4.03687 22.5005 3.70903 22.4317 3.41704L22.237 3.46291C22.2994 3.72772 22.3 4.03028 22.3 4.39998H22.5ZM22.4316 3.41673C22.3244 2.9678 22.0949 2.55732 21.7687 2.23079L21.6272 2.37214C21.9273 2.67255 22.1384 3.05019 22.2371 3.46322L22.4316 3.41673ZM21.7687 2.23079C21.4424 1.90425 21.0321 1.67441 20.5833 1.56673L20.5366 1.76122C20.9496 1.86028 21.327 2.07173 21.6272 2.37214L21.7687 2.23079ZM20.5824 1.56652C20.2907 1.49946 19.9648 1.49998 19.6 1.49998V1.69998C19.9712 1.69998 20.2725 1.70049 20.5376 1.76143L20.5824 1.56652ZM19.6 1.49998H15.68V1.69998H19.6V1.49998ZM15.0354 3.31978C15.0901 3.30706 15.1826 3.29998 15.68 3.29998V3.09998C15.195 3.09998 15.073 3.10569 14.9901 3.12497L15.0354 3.31978ZM15.68 3.29998H19.52V3.09998H15.68V3.29998ZM19.52 3.29998C19.7666 3.29998 19.9145 3.30119 20.0091 3.30451C20.1041 3.30786 20.1388 3.31323 20.1624 3.31926L20.212 3.1255C20.1667 3.11392 20.1142 3.10809 20.0161 3.10464C19.9175 3.10117 19.7661 3.09998 19.52 3.09998V3.29998ZM20.1639 3.31963C20.2897 3.34971 20.4047 3.41403 20.4961 3.50546L20.6375 3.36404C20.5199 3.24648 20.3721 3.16378 20.2104 3.12512L20.1639 3.31963ZM20.4961 3.50546C20.5875 3.5969 20.6518 3.71187 20.6819 3.83763L20.8764 3.79112C20.8378 3.62942 20.7551 3.4816 20.6375 3.36404L20.4961 3.50546ZM20.6819 3.83754C20.6875 3.86095 20.6925 3.89586 20.6956 3.99089C20.6988 4.08539 20.7 4.23338 20.7 4.47998H20.9C20.9 4.23377 20.8988 4.08256 20.8955 3.98426C20.8923 3.88649 20.8869 3.835 20.8765 3.79121L20.6819 3.83754ZM20.7 4.47998V8.31998H20.9V4.47998H20.7ZM20.7 8.31998C20.7 8.81894 20.6929 8.90983 20.6802 8.96452L20.875 9.00983C20.8943 8.92692 20.9 8.80661 20.9 8.31998H20.7ZM20.6803 8.96392C20.6502 9.08968 20.5859 9.20465 20.4945 9.29609L20.6359 9.43751C20.7535 9.31995 20.8362 9.17213 20.8748 9.01043L20.6803 8.96392ZM20.4945 9.29609C20.4031 9.38752 20.2881 9.45184 20.1623 9.48192L20.2088 9.67643C20.3705 9.63777 20.5184 9.55507 20.6359 9.43751L20.4945 9.29609ZM20.1624 9.48189C20.139 9.48747 20.1041 9.49248 20.0091 9.49563C19.9146 9.49877 19.7666 9.49998 19.52 9.49998V9.69998C19.7662 9.69998 19.9174 9.69878 20.0157 9.69552C20.1135 9.69228 20.1649 9.68688 20.2087 9.67646L20.1624 9.48189ZM19.52 9.49998H15.68V9.69998H19.52V9.49998ZM15.68 9.49998C15.4333 9.49998 15.2855 9.49877 15.1909 9.49544C15.0958 9.49209 15.0611 9.48672 15.0376 9.4807L14.988 9.67446C15.0332 9.68603 15.0857 9.69186 15.1839 9.69531C15.2825 9.69879 15.4338 9.69998 15.68 9.69998V9.49998ZM15.036 9.48032C14.9103 9.45024 14.7953 9.38592 14.7039 9.29449L14.5624 9.43591C14.68 9.55347 14.8278 9.63617 14.9895 9.67483L15.036 9.48032ZM14.7039 9.29449C14.6124 9.20305 14.5481 9.08808 14.518 8.96232L14.3235 9.00883C14.3622 9.17053 14.4449 9.31835 14.5624 9.43591L14.7039 9.29449ZM14.5184 8.96414C14.507 8.91191 14.5 8.82019 14.5 8.31998H14.3C14.3 8.80856 14.3058 8.92805 14.3231 9.00702L14.5184 8.96414ZM14.5 8.31998V4.47998H14.3V8.31998H14.5ZM14.5 4.47998C14.5 4.23333 14.5012 4.08546 14.5045 3.99089C14.5079 3.89585 14.5132 3.8611 14.5193 3.83756L14.3255 3.78799C14.3139 3.83325 14.3081 3.8857 14.3046 3.98386C14.3012 4.08249 14.3 4.23382 14.3 4.47998H14.5ZM14.5196 3.83603C14.5497 3.71027 14.614 3.5953 14.7055 3.50386L14.564 3.36244C14.4465 3.48 14.3638 3.62782 14.3251 3.78952L14.5196 3.83603ZM14.7055 3.50386C14.7969 3.41243 14.9119 3.34811 15.0376 3.31803L14.9911 3.12352C14.8294 3.16218 14.6816 3.24488 14.564 3.36244L14.7055 3.50386ZM4.39998 12.9H8.39998V12.7H4.39998V12.9ZM8.39998 12.9C8.76967 12.9 9.07223 12.9005 9.33704 12.9629L9.38291 12.7682C9.09092 12.6994 8.76308 12.7 8.39998 12.7V12.9ZM9.33673 12.9628C9.74976 13.0615 10.1274 13.2726 10.4278 13.5728L10.5692 13.4313C10.2426 13.1051 9.83216 12.8756 9.38322 12.7683L9.33673 12.9628ZM10.4278 13.5728C10.7282 13.8729 10.9397 14.2504 11.0387 14.6633L11.2332 14.6166C11.1255 14.1678 10.8957 13.7575 10.5692 13.4313L10.4278 13.5728ZM11.0385 14.6624C11.0995 14.9275 11.1 15.2288 11.1 15.6H11.3C11.3 15.2352 11.3005 14.9093 11.2334 14.6176L11.0385 14.6624ZM11.1 15.6V19.6H11.3V15.6H11.1ZM11.1 19.6C11.1 19.9697 11.0994 20.2722 11.037 20.537L11.2317 20.5829C11.3005 20.2909 11.3 19.9631 11.3 19.6H11.1ZM11.0371 20.5367C10.9384 20.9498 10.7273 21.3274 10.4272 21.6278L10.5687 21.7692C10.8949 21.4426 11.1244 21.0322 11.2316 20.5832L11.0371 20.5367ZM10.4272 21.6278C10.127 21.9282 9.74958 22.1397 9.33665 22.2387L9.3833 22.4332C9.83215 22.3255 10.2424 22.0957 10.5687 21.7692L10.4272 21.6278ZM9.33757 22.2385C9.07245 22.2995 8.77118 22.3 8.39998 22.3V22.5C8.76477 22.5 9.0907 22.5005 9.38238 22.4334L9.33757 22.2385ZM8.39998 22.3H4.39998V22.5H8.39998V22.3ZM4.39998 22.3C4.03028 22.3 3.72772 22.2994 3.46291 22.237L3.41704 22.4317C3.70903 22.5005 4.03687 22.5 4.39998 22.5V22.3ZM3.46322 22.2371C3.05019 22.1384 2.67255 21.9273 2.37214 21.6272L2.23079 21.7687C2.55732 22.0949 2.96779 22.3244 3.41673 22.4316L3.46322 22.2371ZM2.37214 21.6272C2.07173 21.327 1.86028 20.9496 1.76122 20.5366L1.56673 20.5833C1.67441 21.0321 1.90425 21.4424 2.23079 21.7687L2.37214 21.6272ZM1.76143 20.5376C1.70049 20.2725 1.69998 19.9712 1.69998 19.6H1.49998C1.49998 19.9648 1.49946 20.2907 1.56652 20.5824L1.76143 20.5376ZM1.69998 19.6V15.6H1.49998V19.6H1.69998ZM1.69998 15.6C1.69998 15.2303 1.70051 14.9277 1.76291 14.6629L1.56824 14.617C1.49944 14.909 1.49998 15.2369 1.49998 15.6H1.69998ZM1.76284 14.6632C1.86153 14.2502 2.07264 13.8726 2.37278 13.5721L2.2313 13.4308C1.90506 13.7573 1.67559 14.1678 1.56831 14.6167L1.76284 14.6632ZM2.37278 13.5721C2.67292 13.2717 3.05037 13.0603 3.4633 12.9612L3.41665 12.7667C2.9678 12.8744 2.55753 13.1043 2.2313 13.4308L2.37278 13.5721ZM3.46238 12.9614C3.7275 12.9005 4.02877 12.9 4.39998 12.9V12.7C4.03518 12.7 3.70925 12.6995 3.41757 12.7665L3.46238 12.9614ZM4.47998 14.3C4.23382 14.3 4.08249 14.3012 3.98386 14.3046C3.8857 14.3081 3.83325 14.3139 3.78799 14.3255L3.83756 14.5193C3.8611 14.5132 3.89585 14.5079 3.99089 14.5045C4.08546 14.5012 4.23333 14.5 4.47998 14.5V14.3ZM3.78952 14.3251C3.62782 14.3638 3.48 14.4465 3.36244 14.564L3.50386 14.7055C3.5953 14.614 3.71027 14.5497 3.83603 14.5196L3.78952 14.3251ZM3.36244 14.564C3.24488 14.6816 3.16218 14.8294 3.12352 14.9911L3.31803 15.0376C3.34811 14.9119 3.41243 14.7969 3.50386 14.7055L3.36244 14.564ZM3.1231 14.9929C3.10577 15.0719 3.09998 15.1914 3.09998 15.68H3.29998C3.29998 15.1798 3.30699 15.088 3.31845 15.0358L3.1231 14.9929ZM3.09998 15.68V19.52H3.29998V15.68H3.09998ZM3.09998 19.52C3.09998 19.7661 3.10117 19.9175 3.10464 20.0161C3.10809 20.1142 3.11392 20.1667 3.1255 20.212L3.31926 20.1624C3.31323 20.1388 3.30786 20.1041 3.30451 20.0091C3.30119 19.9145 3.29998 19.7666 3.29998 19.52H3.09998ZM3.12512 20.2104C3.16378 20.3721 3.24648 20.52 3.36404 20.6375L3.50546 20.4961C3.41403 20.4047 3.34971 20.2897 3.31963 20.1639L3.12512 20.2104ZM3.36404 20.6375C3.4816 20.7551 3.62942 20.8378 3.79112 20.8764L3.83763 20.6819C3.71187 20.6518 3.5969 20.5875 3.50546 20.4961L3.36404 20.6375ZM3.79121 20.8765C3.835 20.8869 3.88649 20.8923 3.98426 20.8955C4.08256 20.8988 4.23377 20.9 4.47998 20.9V20.7C4.23338 20.7 4.08539 20.6988 3.99089 20.6956C3.89586 20.6925 3.86095 20.6875 3.83754 20.6819L3.79121 20.8765ZM4.47998 20.9H8.31997V20.7H4.47998V20.9ZM8.31997 20.9C8.80661 20.9 8.92692 20.8943 9.00983 20.875L8.96452 20.6802C8.90983 20.6929 8.81894 20.7 8.31997 20.7V20.9ZM9.01043 20.8748C9.17213 20.8362 9.31995 20.7535 9.43751 20.6359L9.29609 20.4945C9.20465 20.5859 9.08968 20.6502 8.96392 20.6803L9.01043 20.8748ZM9.43751 20.6359C9.55507 20.5184 9.63777 20.3705 9.67643 20.2088L9.48192 20.1623C9.45184 20.2881 9.38752 20.4031 9.29609 20.4945L9.43751 20.6359ZM9.67646 20.2087C9.68688 20.1649 9.69227 20.1135 9.69552 20.0157C9.69878 19.9174 9.69998 19.7662 9.69998 19.52H9.49998C9.49998 19.7666 9.49877 19.9146 9.49563 20.0091C9.49248 20.1041 9.48747 20.139 9.48189 20.1624L9.67646 20.2087ZM9.69998 19.52V15.68H9.49998V19.52H9.69998ZM9.69998 15.68C9.69998 15.4338 9.69878 15.2825 9.69531 15.1839C9.69186 15.0857 9.68603 15.0332 9.67446 14.988L9.48069 15.0376C9.48672 15.0611 9.49209 15.0958 9.49544 15.1909C9.49877 15.2855 9.49998 15.4333 9.49998 15.68H9.69998ZM9.67483 14.9895C9.63617 14.8278 9.55347 14.68 9.43591 14.5624L9.29449 14.7039C9.38592 14.7953 9.45024 14.9103 9.48032 15.036L9.67483 14.9895ZM9.43591 14.5624C9.31835 14.4449 9.17053 14.3622 9.00883 14.3235L8.96232 14.518C9.08808 14.5481 9.20305 14.6124 9.29449 14.7039L9.43591 14.5624ZM9.00702 14.3231C8.92805 14.3058 8.80856 14.3 8.31997 14.3V14.5C8.82019 14.5 8.91191 14.507 8.96413 14.5184L9.00702 14.3231ZM8.31997 14.3H4.47998V14.5H8.31997V14.3ZM15.68 12.7H15.6V12.9H15.68V12.7ZM15.6 12.7C15.2369 12.7 14.909 12.6994 14.617 12.7682L14.6629 12.9629C14.9277 12.9005 15.2303 12.9 15.6 12.9V12.7ZM14.6167 12.7683C14.1678 12.8756 13.7573 13.1051 13.4308 13.4313L13.5721 13.5728C13.8726 13.2726 14.2502 13.0615 14.6632 12.9628L14.6167 12.7683ZM13.4308 13.4313C13.1043 13.7575 12.8744 14.1678 12.7667 14.6166L12.9612 14.6633C13.0603 14.2504 13.2717 13.8729 13.5721 13.5728L13.4308 13.4313ZM12.7665 14.6176C12.6995 14.9093 12.7 15.2352 12.7 15.6H12.9C12.9 15.2288 12.9005 14.9275 12.9614 14.6624L12.7665 14.6176ZM12.7 15.6V19.6H12.9V15.6H12.7ZM12.7 19.6C12.7 19.9631 12.6994 20.2909 12.7682 20.5829L12.9629 20.537C12.9005 20.2722 12.9 19.9697 12.9 19.6H12.7ZM12.7683 20.5832C12.8756 21.0322 13.1051 21.4426 13.4313 21.7692L13.5728 21.6278C13.2726 21.3274 13.0615 20.9498 12.9628 20.5367L12.7683 20.5832ZM13.4313 21.7692C13.7575 22.0957 14.1678 22.3255 14.6166 22.4332L14.6633 22.2387C14.2504 22.1397 13.8729 21.9282 13.5728 21.6278L13.4313 21.7692ZM14.617 22.4333C14.909 22.5021 15.2369 22.5016 15.6 22.5016V22.3016C15.2303 22.3016 14.9277 22.301 14.6629 22.2386L14.617 22.4333ZM15.6 22.5016H19.6V22.3016H15.6V22.5016ZM19.6 22.5016C19.9631 22.5016 20.2909 22.5021 20.5829 22.4333L20.537 22.2386C20.2722 22.301 19.9697 22.3016 19.6 22.3016V22.5016ZM20.5833 22.4332C21.0319 22.3257 21.442 22.0961 21.7683 21.7699L21.6268 21.6284C21.3267 21.9286 20.9494 22.1398 20.5367 22.2387L20.5833 22.4332ZM21.7683 21.7699C22.0945 21.4436 22.3241 21.0335 22.4316 20.5849L22.2371 20.5383C22.1382 20.951 21.927 21.3283 21.6268 21.6284L21.7683 21.7699ZM22.4317 20.5845C22.5005 20.2925 22.5 19.9647 22.5 19.6016H22.3C22.3 19.9713 22.2994 20.2738 22.237 20.5386L22.4317 20.5845ZM22.5 19.6016V15.6016H22.3V19.6016H22.5ZM22.5 15.6016C22.5 15.2385 22.5005 14.9106 22.4317 14.6186L22.237 14.6645C22.2994 14.9293 22.3 15.2319 22.3 15.6016H22.5ZM22.4317 14.6184C22.3246 14.1692 22.0953 13.7583 21.769 13.4315L21.6275 13.5728C21.9277 13.8735 22.1387 14.2514 22.2371 14.6647L22.4317 14.6184ZM21.769 13.4315C21.4428 13.1046 21.0324 12.8746 20.5833 12.7667L20.5366 12.9612C20.9498 13.0604 21.3273 13.2721 21.6275 13.5728L21.769 13.4315ZM20.5824 12.7665C20.2907 12.6995 19.9648 12.7 19.6 12.7V12.9C19.9712 12.9 20.2725 12.9005 20.5376 12.9614L20.5824 12.7665ZM19.6 12.7H15.68V12.9H19.6V12.7ZM15.0354 14.5198C15.0901 14.5071 15.1826 14.5 15.68 14.5V14.3C15.195 14.3 15.073 14.3057 14.9901 14.325L15.0354 14.5198ZM15.68 14.5H19.52V14.3H15.68V14.5ZM19.52 14.5C19.7666 14.5 19.9145 14.5012 20.0091 14.5045C20.1041 14.5079 20.1388 14.5132 20.1624 14.5193L20.212 14.3255C20.1667 14.3139 20.1142 14.3081 20.0161 14.3046C19.9175 14.3012 19.7661 14.3 19.52 14.3V14.5ZM20.1639 14.5196C20.2897 14.5497 20.4047 14.614 20.4961 14.7055L20.6375 14.564C20.5199 14.4465 20.3721 14.3638 20.2104 14.3251L20.1639 14.5196ZM20.4961 14.7055C20.5875 14.7969 20.6518 14.9119 20.6819 15.0376L20.8764 14.9911C20.8378 14.8294 20.7551 14.6816 20.6375 14.564L20.4961 14.7055ZM20.6819 15.0375C20.6875 15.0609 20.6925 15.0959 20.6956 15.1909C20.6988 15.2854 20.7 15.4334 20.7 15.68H20.9C20.9 15.4338 20.8988 15.2826 20.8955 15.1843C20.8923 15.0865 20.8869 15.035 20.8765 14.9912L20.6819 15.0375ZM20.7 15.68V19.52H20.9V15.68H20.7ZM20.7 19.52C20.7 20.0189 20.6929 20.1098 20.6802 20.1645L20.875 20.2098C20.8943 20.1269 20.9 20.0066 20.9 19.52H20.7ZM20.6803 20.1639C20.6502 20.2897 20.5859 20.4047 20.4945 20.4961L20.6359 20.6375C20.7535 20.52 20.8362 20.3721 20.8748 20.2104L20.6803 20.1639ZM20.4945 20.4961C20.4031 20.5875 20.2881 20.6518 20.1623 20.6819L20.2088 20.8764C20.3705 20.8378 20.5184 20.7551 20.6359 20.6375L20.4945 20.4961ZM20.1624 20.6819C20.139 20.6875 20.1041 20.6925 20.0091 20.6956C19.9146 20.6988 19.7666 20.7 19.52 20.7V20.9C19.7662 20.9 19.9174 20.8988 20.0157 20.8955C20.1135 20.8923 20.1649 20.8869 20.2087 20.8765L20.1624 20.6819ZM19.52 20.7H15.68V20.9H19.52V20.7ZM15.68 20.7C15.181 20.7 15.0901 20.6929 15.0354 20.6802L14.9901 20.875C15.073 20.8943 15.1933 20.9 15.68 20.9V20.7ZM15.036 20.6803C14.9103 20.6502 14.7953 20.5859 14.7039 20.4945L14.5624 20.6359C14.68 20.7535 14.8278 20.8362 14.9895 20.8748L15.036 20.6803ZM14.7039 20.4945C14.6124 20.4031 14.5481 20.2881 14.518 20.1623L14.3235 20.2088C14.3622 20.3705 14.4449 20.5184 14.5624 20.6359L14.7039 20.4945ZM14.5184 20.1641C14.507 20.1119 14.5 20.0202 14.5 19.52H14.3C14.3 20.0086 14.3058 20.128 14.3231 20.207L14.5184 20.1641ZM14.5 19.52V15.68H14.3V19.52H14.5ZM14.5 15.68C14.5 15.4333 14.5012 15.2855 14.5045 15.1909C14.5079 15.0958 14.5132 15.0611 14.5193 15.0376L14.3255 14.988C14.3139 15.0332 14.3081 15.0857 14.3046 15.1839C14.3012 15.2825 14.3 15.4338 14.3 15.68H14.5ZM14.5196 15.036C14.5497 14.9103 14.614 14.7953 14.7055 14.7039L14.564 14.5624C14.4465 14.68 14.3638 14.8278 14.3251 14.9895L14.5196 15.036ZM14.7055 14.7039C14.7969 14.6124 14.9119 14.5481 15.0376 14.518L14.9911 14.3235C14.8294 14.3622 14.6816 14.4449 14.564 14.5624L14.7055 14.7039Z" fill="black" fill-opacity="0.2" mask="url(#path-1-outside-1_3943_789)"/>
</svg>
