<svg width="20" height="20" viewBox="0 0 20 20" fill="none" xmlns="http://www.w3.org/2000/svg">
<path d="M1.66667 2.50016V2.0835C1.55616 2.0835 1.45018 2.12739 1.37204 2.20554C1.2939 2.28368 1.25 2.38966 1.25 2.50016H1.66667ZM10.8333 2.50016H11.25C11.25 2.38966 11.2061 2.28368 11.128 2.20554C11.0498 2.12739 10.9438 2.0835 10.8333 2.0835V2.50016ZM10.8333 7.50016V7.0835C10.7228 7.0835 10.6168 7.12739 10.5387 7.20553C10.4606 7.28367 10.4167 7.38966 10.4167 7.50016H10.8333ZM1.66667 2.91683H10.8333V2.0835H1.66667V2.91683ZM10.4167 2.50016V15.8335H11.25V2.50016H10.4167ZM2.08333 14.1668V2.50016H1.25V14.1668H2.08333ZM10.8333 7.91683H15V7.0835H10.8333V7.91683ZM17.9167 10.8335V14.1668H18.75V10.8335H17.9167ZM11.25 15.8335V7.50016H10.4167V15.8335H11.25ZM15.8833 16.7168C15.649 16.9509 15.3313 17.0824 15 17.0824C14.6687 17.0824 14.351 16.9509 14.1167 16.7168L13.5267 17.3068C13.7201 17.5003 13.9498 17.6538 14.2026 17.7586C14.4554 17.8633 14.7264 17.9172 15 17.9172C15.2736 17.9172 15.5446 17.8633 15.7974 17.7586C16.0502 17.6538 16.2799 17.5003 16.4733 17.3068L15.8833 16.7168ZM14.1167 14.9502C14.351 14.7161 14.6687 14.5846 15 14.5846C15.3313 14.5846 15.649 14.7161 15.8833 14.9502L16.4733 14.3602C16.2799 14.1666 16.0502 14.0131 15.7974 13.9084C15.5446 13.8037 15.2736 13.7498 15 13.7498C14.7264 13.7498 14.4554 13.8037 14.2026 13.9084C13.9498 14.0131 13.7201 14.1666 13.5267 14.3602L14.1167 14.9502ZM5.88333 16.7168C5.64896 16.9509 5.33125 17.0824 5 17.0824C4.66875 17.0824 4.35104 16.9509 4.11667 16.7168L3.52667 17.3068C3.72013 17.5003 3.94982 17.6538 4.20262 17.7586C4.45541 17.8633 4.72637 17.9172 5 17.9172C5.27363 17.9172 5.54459 17.8633 5.79738 17.7586C6.05018 17.6538 6.27987 17.5003 6.47333 17.3068L5.88333 16.7168ZM4.11667 14.9502C4.35104 14.7161 4.66875 14.5846 5 14.5846C5.33125 14.5846 5.64896 14.7161 5.88333 14.9502L6.47333 14.3602C6.27987 14.1666 6.05018 14.0131 5.79738 13.9084C5.54459 13.8037 5.27363 13.7498 5 13.7498C4.72637 13.7498 4.45541 13.8037 4.20262 13.9084C3.94982 14.0131 3.72013 14.1666 3.52667 14.3602L4.11667 14.9502ZM15.8833 14.9502C16.1283 15.1935 16.25 15.5127 16.25 15.8335H17.0833C17.0833 15.301 16.88 14.7668 16.4733 14.3602L15.8833 14.9502ZM16.25 15.8335C16.25 16.1543 16.1283 16.4735 15.8833 16.7168L16.4733 17.3068C16.6668 17.1133 16.8202 16.8836 16.9249 16.6308C17.0295 16.378 17.0834 16.1071 17.0833 15.8335H16.25ZM13.3333 15.4168H10.8333V16.2502H13.3333V15.4168ZM14.1167 16.7168C13.8822 16.4826 13.7503 16.1649 13.75 15.8335H12.9167C12.9167 16.366 13.12 16.9002 13.5267 17.3068L14.1167 16.7168ZM13.75 15.8335C13.75 15.5127 13.8717 15.1935 14.1167 14.9502L13.5267 14.3602C13.3332 14.5537 13.1798 14.7834 13.0751 15.0362C12.9705 15.289 12.9166 15.5599 12.9167 15.8335H13.75ZM4.11667 16.7168C3.88218 16.4826 3.75029 16.1649 3.75 15.8335H2.91667C2.91667 16.366 3.12 16.9002 3.52667 17.3068L4.11667 16.7168ZM3.75 15.8335C3.75 15.5127 3.87167 15.1935 4.11667 14.9502L3.52667 14.3602C3.33322 14.5537 3.17979 14.7834 3.07512 15.0362C2.97046 15.289 2.91662 15.5599 2.91667 15.8335H3.75ZM10.8333 15.4168H6.66667V16.2502H10.8333V15.4168ZM5.88333 14.9502C6.12833 15.1935 6.25 15.5127 6.25 15.8335H7.08333C7.08333 15.301 6.88 14.7668 6.47333 14.3602L5.88333 14.9502ZM6.25 15.8335C6.25 16.1543 6.12833 16.4735 5.88333 16.7168L6.47333 17.3068C6.66678 17.1133 6.82021 16.8836 6.92488 16.6308C7.02954 16.378 7.08338 16.1071 7.08333 15.8335H6.25ZM17.9167 14.1668C17.9167 14.4984 17.785 14.8163 17.5505 15.0507C17.3161 15.2851 16.9982 15.4168 16.6667 15.4168V16.2502C17.2192 16.2502 17.7491 16.0307 18.1398 15.64C18.5305 15.2493 18.75 14.7194 18.75 14.1668H17.9167ZM15 7.91683C15.7735 7.91683 16.5154 8.22412 17.0624 8.7711C17.6094 9.31808 17.9167 10.0599 17.9167 10.8335H18.75C18.75 9.83893 18.3549 8.88511 17.6516 8.18185C16.9484 7.47858 15.9946 7.0835 15 7.0835V7.91683ZM1.25 14.1668C1.25 14.7194 1.46949 15.2493 1.86019 15.64C2.2509 16.0307 2.7808 16.2502 3.33333 16.2502V15.4168C3.00181 15.4168 2.68387 15.2851 2.44945 15.0507C2.21503 14.8163 2.08333 14.4984 2.08333 14.1668H1.25Z" fill="white"/>
<path d="M1.66663 6.66699H4.16663M1.66663 10.0003H5.83329" stroke="white" stroke-linecap="round" stroke-linejoin="round"/>
</svg>
