<svg width="18" height="15" viewBox="0 0 18 15" fill="none" xmlns="http://www.w3.org/2000/svg">
<g clip-path="url(#clip0_472_593)">
<path d="M16.9873 3.46625L14.1966 1.00791C14.0122 0.847108 13.7626 0.756836 13.5025 0.756836C13.2423 0.756836 12.9927 0.847108 12.8083 1.00791L2.91469 9.66625L2.01137 13.0829C1.98021 13.2078 1.98128 13.3372 2.0145 13.4617C2.04772 13.5862 2.11225 13.7026 2.20338 13.8025C2.29451 13.9023 2.40994 13.983 2.54123 14.0388C2.67252 14.0945 2.81635 14.1238 2.96223 14.1246C3.0302 14.1306 3.09869 14.1306 3.16666 14.1246L7.10796 13.3329L16.9873 4.68291C17.1708 4.52129 17.2738 4.30257 17.2738 4.07458C17.2738 3.84659 17.1708 3.62787 16.9873 3.46625ZM6.63253 12.5829L2.93846 13.2621L3.77996 10.0871L11.1824 3.62458L14.0349 6.12458L6.63253 12.5829ZM14.672 5.52041L11.8194 3.02041L13.4739 1.57875L16.2789 4.07875L14.672 5.52041Z" fill="#545454"/>
</g>
<defs>
<clipPath id="clip0_472_593">
<rect width="17.1154" height="15" fill="white" transform="translate(0.884644)"/>
</clipPath>
</defs>
</svg>
