<svg width="28" height="28" viewBox="0 0 28 28" fill="none" xmlns="http://www.w3.org/2000/svg">
<path fill-rule="evenodd" clip-rule="evenodd" d="M8.42986 5.72723C9.51768 4.98653 10.7412 4.46879 12.0299 4.20388C13.3186 3.93898 14.6469 3.93215 15.9383 4.18379C17.2296 4.43542 18.4584 4.94055 19.5538 5.67002C20.6492 6.3995 21.5894 7.33889 22.3203 8.434C23.0513 9.52911 23.5584 10.7583 23.8124 12.0506C24.0665 13.3429 24.0624 14.6728 23.8005 15.9635C23.5386 17.2543 23.0241 18.4803 22.2865 19.571C21.5489 20.6616 20.603 21.5952 19.5032 22.318C17.3057 23.7883 14.6147 24.3244 12.0224 23.8084C9.43005 23.2924 7.14864 21.7665 5.68003 19.5664C4.21143 17.3664 3.67594 14.6723 4.19137 12.077C4.70679 9.4816 6.23091 7.19754 8.42843 5.72723H8.42986ZM9.22142 21.1336C10.154 21.7644 11.2019 22.2046 12.305 22.4287C13.408 22.6528 14.5444 22.6564 15.6489 22.4394C16.7533 22.2224 17.8041 21.789 18.7407 21.1641C19.6773 20.5392 20.4813 19.7352 21.1066 18.7982C21.7318 17.8612 22.1659 16.8098 22.384 15.7043C22.602 14.5988 22.5997 13.4611 22.3771 12.3565C22.1546 11.2519 21.7162 10.2023 21.0871 9.26786C20.4581 8.33345 19.6508 7.53272 18.7116 6.91167C16.8277 5.66591 14.5279 5.21749 12.3147 5.66444C10.1016 6.11139 8.15515 7.41736 6.90097 9.29686C5.64678 11.1764 5.18683 13.4765 5.62165 15.6946C6.05647 17.9126 7.35069 19.8681 9.22142 21.1336ZM11.831 12.5973C11.831 12.9753 11.681 13.3379 11.414 13.6052C11.147 13.8725 10.7849 14.0226 10.4073 14.0226C10.0298 14.0226 9.66764 13.8725 9.40065 13.6052C9.13366 13.3379 8.98366 12.9753 8.98366 12.5973C8.98366 12.2193 9.13366 11.8567 9.40065 11.5894C9.66764 11.3221 10.0298 11.172 10.4073 11.172C10.7849 11.172 11.147 11.3221 11.414 11.5894C11.681 11.8567 11.831 12.2193 11.831 12.5973ZM18.9494 12.5973C18.9494 12.9753 18.7994 13.3379 18.5324 13.6052C18.2654 13.8725 17.9033 14.0226 17.5257 14.0226C17.1481 14.0226 16.786 13.8725 16.519 13.6052C16.252 13.3379 16.102 12.9753 16.102 12.5973C16.102 12.2193 16.252 11.8567 16.519 11.5894C16.786 11.3221 17.1481 11.172 17.5257 11.172C17.9033 11.172 18.2654 11.3221 18.5324 11.5894C18.7994 11.8567 18.9494 12.2193 18.9494 12.5973ZM13.9665 18.2986C13.1929 18.3005 12.4333 18.092 11.7688 17.6954C11.1044 17.2987 10.56 16.7288 10.1938 16.0466L8.95519 16.7307C9.45369 17.6543 10.1972 18.4221 11.1038 18.9496C12.0104 19.4771 13.0448 19.7438 14.0931 19.7202C15.1414 19.6966 16.1629 19.3837 17.0449 18.816C17.9269 18.2482 18.6352 17.4477 19.0917 16.5027L17.8104 15.8898C17.4602 16.6121 16.914 17.2211 16.2342 17.6471C15.5544 18.0731 14.7685 18.2989 13.9665 18.2986Z" fill="#70A9F2"/>
</svg>
