<svg width="24" height="25" viewBox="0 0 24 25" fill="none" xmlns="http://www.w3.org/2000/svg">
<path d="M12 20.1544L11.242 19.4694C9.61 17.9787 8.26 16.7027 7.192 15.6414C6.12467 14.5794 5.282 13.6427 4.664 12.8314C4.046 12.0201 3.614 11.2867 3.368 10.6314C3.122 9.97606 2.99934 9.31572 3 8.65039C3 7.37839 3.432 6.31039 4.296 5.44639C5.16 4.58239 6.228 4.15039 7.5 4.15039C8.38 4.15039 9.205 4.37539 9.975 4.82539C10.745 5.27539 11.42 5.93006 12 6.78939C12.58 5.93006 13.255 5.27539 14.025 4.82539C14.795 4.37539 15.62 4.15039 16.5 4.15039C17.772 4.15039 18.84 4.58239 19.704 5.44639C20.568 6.31039 21 7.37839 21 8.65039C21 9.31439 20.8773 9.97439 20.632 10.6304C20.386 11.2877 19.954 12.0217 19.336 12.8324C18.718 13.6431 17.8783 14.5794 16.817 15.6414C15.7557 16.7027 14.4023 17.9787 12.757 19.4694L12 20.1544ZM12 18.8004C13.6 17.3537 14.9167 16.1151 15.95 15.0844C16.9833 14.0537 17.8 13.1587 18.4 12.3994C19 11.6401 19.4167 10.9684 19.65 10.3844C19.8833 9.79906 20 9.22106 20 8.65039C20 7.65039 19.6667 6.81706 19 6.15039C18.3333 5.48372 17.5 5.15039 16.5 5.15039C15.704 5.15039 14.9693 5.37772 14.296 5.83239C13.6227 6.28706 13.0207 6.97139 12.49 7.88539H11.512C10.9673 6.95872 10.3617 6.27106 9.695 5.82239C9.02834 5.37439 8.297 5.15039 7.501 5.15039C6.51434 5.15039 5.68434 5.48372 5.011 6.15039C4.33767 6.81706 4.00067 7.65039 4 8.65039C4 9.22106 4.11667 9.79906 4.35 10.3844C4.58334 10.9697 5 11.6414 5.6 12.3994C6.2 13.1574 7.01667 14.0491 8.05 15.0744C9.08334 16.0997 10.4 17.3417 12 18.8004Z" fill="black" fill-opacity="0.6"/>
</svg>
