<svg width="64" height="48" viewBox="0 0 64 48" fill="none" xmlns="http://www.w3.org/2000/svg">
<g clip-path="url(#clip0_927_9104)">
<path d="M60.4 8V7.6H60H4H3.6V8V43C3.6 43.3808 3.74391 43.7158 4.01403 43.986C4.28416 44.2561 4.61918 44.4 5 44.4H59C59.3808 44.4 59.7158 44.2561 59.986 43.986C60.2561 43.7158 60.4 43.3808 60.4 43V8ZM27.6 33.875C27.6 34.9389 27.2976 35.8206 26.706 36.5436C26.1146 37.2665 25.4363 37.6 24.6562 37.6H11.3438C10.5637 37.6 9.88542 37.2665 9.29396 36.5436C8.70244 35.8206 8.4 34.9389 8.4 33.875C8.4 32.7683 8.47687 31.743 8.62927 30.7981C8.78104 29.8571 9.02881 28.9471 9.37256 28.0675C9.7022 27.224 10.1898 26.5748 10.8307 26.1035C11.4248 25.6667 12.1307 25.4294 12.9644 25.4026C14.3513 26.7326 16.0372 27.4 18 27.4C19.9628 27.4 21.6487 26.7326 23.0356 25.4026C23.8693 25.4294 24.5752 25.6667 25.1693 26.1035C25.8102 26.5748 26.2978 27.224 26.6274 28.0675C26.9712 28.9471 27.219 29.8571 27.3707 30.7981C27.5231 31.743 27.6 32.7683 27.6 33.875ZM23.6 20C23.6 21.5618 23.058 22.8764 21.9672 23.9672C20.8764 25.058 19.5618 25.6 18 25.6C16.4382 25.6 15.1236 25.058 14.0328 23.9672C12.942 22.8764 12.4 21.5618 12.4 20C12.4 18.4382 12.942 17.1236 14.0328 16.0328C15.1236 14.942 16.4382 14.4 18 14.4C19.5618 14.4 20.8764 14.942 21.9672 16.0328C23.058 17.1236 23.6 18.4382 23.6 20ZM55.6 33V35C55.6 35.1972 55.5405 35.3313 55.4359 35.4359C55.3313 35.5405 55.1972 35.6 55 35.6H33C32.8028 35.6 32.6687 35.5405 32.5641 35.4359C32.4595 35.3313 32.4 35.1972 32.4 35V33C32.4 32.8028 32.4595 32.6687 32.5641 32.5641C32.6687 32.4595 32.8028 32.4 33 32.4H55C55.1972 32.4 55.3313 32.4595 55.4359 32.5641C55.5405 32.6687 55.6 32.8028 55.6 33ZM43.6 27C43.6 27.1972 43.5405 27.3313 43.4359 27.4359C43.3313 27.5405 43.1972 27.6 43 27.6H33C32.8028 27.6 32.6687 27.5405 32.5641 27.4359C32.4595 27.3313 32.4 27.1972 32.4 27V25C32.4 24.8028 32.4595 24.6687 32.5641 24.5641C32.6687 24.4595 32.8028 24.4 33 24.4H43C43.1972 24.4 43.3313 24.4595 43.4359 24.5641C43.5405 24.6687 43.6 24.8028 43.6 25V27ZM55.6 27C55.6 27.1972 55.5405 27.3313 55.4359 27.4359C55.3313 27.5405 55.1972 27.6 55 27.6H49C48.8028 27.6 48.6687 27.5405 48.5641 27.4359C48.4595 27.3313 48.4 27.1972 48.4 27V25C48.4 24.8028 48.4595 24.6687 48.5641 24.5641C48.6687 24.4595 48.8028 24.4 49 24.4H55C55.1972 24.4 55.3313 24.4595 55.4359 24.5641C55.5405 24.6687 55.6 24.8028 55.6 25V27ZM55.6 17V19C55.6 19.1972 55.5405 19.3313 55.4359 19.4359C55.3313 19.5405 55.1972 19.6 55 19.6H33C32.8028 19.6 32.6687 19.5405 32.5641 19.4359C32.4595 19.3313 32.4 19.1972 32.4 19V17C32.4 16.8028 32.4595 16.6687 32.5641 16.5641C32.6687 16.4595 32.8028 16.4 33 16.4H55C55.1972 16.4 55.3313 16.4595 55.4359 16.5641C55.5405 16.6687 55.6 16.8028 55.6 17ZM63.6 5V43C63.6 44.2681 63.1532 45.3437 62.2484 46.2484C61.3437 47.1532 60.2681 47.6 59 47.6H5C3.73193 47.6 2.65634 47.1532 1.75159 46.2484C0.846842 45.3437 0.4 44.2681 0.4 43V5C0.4 3.73193 0.846842 2.65634 1.75159 1.75159C2.65634 0.846842 3.73193 0.4 5 0.4H59C60.2681 0.4 61.3437 0.846842 62.2484 1.75159C63.1532 2.65634 63.6 3.73193 63.6 5Z" fill="black" stroke="white" stroke-width="0.8"/>
</g>
<defs>
<clipPath id="clip0_927_9104">
<rect width="64" height="48" fill="white"/>
</clipPath>
</defs>
</svg>
