<svg width="72" height="58" viewBox="0 0 72 58" fill="none" xmlns="http://www.w3.org/2000/svg">
<path d="M14.4685 25.7441L0 34.6132L3.0978 34.6072V45.1947L17.8481 57.9212H25.7078V53.5806L8.78505 39.1923L14.4685 35.707V25.7441Z" fill="#ED2024"/>
<path d="M41.7892 21.2412V21.0532L27.4121 29.8677L32.3187 29.8738V43.2795H46.5644V25.2907L41.7892 21.2412Z" fill="#ED2024"/>
<path d="M22.224 35.7316L20.7123 36.8293V34.0172L25.7064 30.9139V9.18494L13.2695 16.8087V24.4142L16.1769 22.6331V43.1511L25.7064 51.2196V47.993L22.224 45.0414V35.7316Z" fill="#45B64A"/>
<path d="M41.7894 8.98718L27.4123 17.8017L27.3457 27.7706L41.7894 18.9561V18.9278L63.0057 36.9126L54.4796 42.1386V34.5998H57.5469L48.2687 26.7335V49.0993H57.2308L69.2793 41.7121V34.5998H72.0002L41.7894 8.98718Z" fill="#1559A8"/>
<path d="M27.4014 52.1572H28.8332V54.3002H30.5239V52.1572H31.9557V57.9089H30.5239V55.7659H28.8332V57.9089H27.4014V52.1572Z" fill="black"/>
<path d="M32.7362 52.1575H36.4547V53.4433H34.168V54.3813H36.171V55.6853H34.168V56.6234H36.4547V57.9091H32.7362V52.1575Z" fill="black"/>
<path d="M38.7317 52.1572H40.2473L42.1285 57.9089H40.6357L40.2245 56.6858H38.747L38.3433 57.9089H36.8506L38.7317 52.1572ZM40.0341 55.4788L39.4857 53.7907L38.9374 55.4788H40.0341Z" fill="black"/>
<path d="M42.8773 53.4069H41.4988V52.1575H45.6895V53.4069H44.311V57.9091H42.8792V53.4069H42.8773Z" fill="black"/>
<path d="M48.8427 52.1575H51.3731C51.9519 52.1575 52.3917 52.3536 52.6906 52.7478C52.9896 53.14 53.14 53.6495 53.14 54.2742C53.14 54.6785 53.0657 55.0384 52.9191 55.3558C52.7725 55.6711 52.5631 55.9178 52.2908 56.0977C52.0185 56.2756 51.7025 56.3666 51.3426 56.3666H50.2764V57.9112H48.8446V52.1575H48.8427ZM51.0151 55.0788C51.2284 55.0788 51.3921 55.006 51.5063 54.8605C51.6206 54.7149 51.6777 54.5188 51.6777 54.2762C51.6777 54.0134 51.6263 53.8112 51.5216 53.6636C51.4169 53.516 51.2607 53.4453 51.0532 53.4453H50.2764V55.0788H51.0151Z" fill="black"/>
<path d="M54.2114 57.3955C53.7868 56.9931 53.5754 56.4271 53.5754 55.6932V52.1553H55.0072V55.5133C55.0072 56.2168 55.3043 56.5666 55.8983 56.5666C56.4867 56.5666 56.7818 56.2148 56.7818 55.5133V52.1573H58.2136V55.6952C58.2136 56.1845 58.1165 56.6009 57.9242 56.9446C57.7319 57.2903 57.4596 57.5511 57.1093 57.7311C56.7589 57.911 56.3553 57.9999 55.8983 57.9999C55.1996 57.9979 54.636 57.7978 54.2114 57.3955Z" fill="black"/>
<path d="M58.9541 52.1572H60.3478L61.5664 55.0786L62.7773 52.1572H64.1634V57.9089H62.7316V55.0321L61.9472 56.9264H61.178L60.3859 55.0321V57.9089H58.9541V52.1572Z" fill="black"/>
<path d="M64.9424 52.1572H67.4728C68.0516 52.1572 68.4914 52.3533 68.7904 52.7476C69.0893 53.1398 69.2397 53.6492 69.2397 54.2739C69.2397 54.6783 69.1655 55.0381 69.0188 55.3555C68.8722 55.6709 68.6628 55.9175 68.3905 56.0975C68.1182 56.2754 67.8022 56.3664 67.4423 56.3664H66.3761V57.9109H64.9443V52.1572H64.9424ZM67.1129 55.0786C67.3262 55.0786 67.4899 55.0058 67.6042 54.8602C67.7184 54.7146 67.7755 54.5185 67.7755 54.2759C67.7755 54.0131 67.7241 53.811 67.6194 53.6634C67.5147 53.5158 67.3586 53.445 67.151 53.445H66.3742V55.0786H67.1129Z" fill="black"/>
<path d="M27.6377 48.1505C27.9214 48.3142 28.3479 48.4578 28.7934 48.4578C29.3532 48.4578 29.6654 48.1929 29.6654 47.7987C29.6654 47.4348 29.4236 47.2185 28.8143 46.9981C28.0261 46.711 27.5234 46.2905 27.5234 45.5951C27.5234 44.8086 28.1765 44.2062 29.2123 44.2062C29.7302 44.2062 30.1129 44.3214 30.3623 44.4488L30.149 45.1564C29.9796 45.0634 29.6445 44.9279 29.1989 44.9279C28.6449 44.9279 28.405 45.2291 28.405 45.5081C28.405 45.8801 28.6811 46.052 29.3208 46.3027C30.1509 46.618 30.5546 47.0406 30.5546 47.734C30.5546 48.5063 29.972 49.1795 28.7382 49.1795C28.2336 49.1795 27.71 49.036 27.4473 48.8783L27.6377 48.1505Z" fill="#ED2024"/>
<path d="M33.3994 45.0245H32.0381V44.2866H35.65V45.0245H34.2734V49.1103H33.4013V45.0245H33.3994Z" fill="#ED2024"/>
<path d="M41.3958 46.6483C41.3958 48.2656 40.4248 49.1895 39.1034 49.1895C37.7554 49.1895 36.9043 48.1524 36.9043 46.7352C36.9043 45.2533 37.8258 44.2081 39.1739 44.2081C40.5733 44.2081 41.3958 45.2736 41.3958 46.6483ZM37.8277 46.7191C37.8277 47.6996 38.3171 48.4799 39.1548 48.4799C39.9983 48.4799 40.4743 47.6935 40.4743 46.6827C40.4743 45.7729 40.0269 44.9157 39.1548 44.9157C38.2885 44.9157 37.8277 45.7244 37.8277 46.7191Z" fill="#ED2024"/>
<path d="M43.2929 44.3524C43.6052 44.2958 44.0374 44.2513 44.6257 44.2513C45.2636 44.2513 45.7319 44.3868 46.0385 44.6456C46.3222 44.8821 46.5069 45.2602 46.5069 45.711C46.5069 46.1699 46.3641 46.548 46.0956 46.8067C45.7472 47.1565 45.2007 47.3223 44.5838 47.3223C44.4201 47.3223 44.2716 47.3142 44.1573 47.294V49.1115H43.291V44.3524H43.2929ZM44.1573 46.5985C44.264 46.6268 44.4049 46.6349 44.5838 46.6349C45.2369 46.6349 45.6329 46.3135 45.6329 45.7474C45.6329 45.2116 45.2636 44.9246 44.66 44.9246C44.4182 44.9246 44.2487 44.9468 44.1554 44.967V46.5985H44.1573Z" fill="#ED2024"/>
<path d="M17.1597 0.255908C14.5759 2.41304 16.8379 7.31358 12.9671 8.47807C12.5653 8.59937 11.4324 8.565 11.2687 8.90464C10.9564 9.55158 11.2097 12.0726 11.4229 12.7943C11.857 14.2641 12.6929 15.2648 12.5805 16.8842C12.571 17.0116 12.6986 17.048 12.4416 17.1086C11.421 15.3053 10.6499 13.3362 10.5871 11.2053C10.5014 8.28601 12.2188 5.45364 13.8981 3.28236C13.8505 3.0903 13.683 3.29044 13.5954 3.3511C12.314 4.24468 11.5638 5.75285 10.8517 7.13365C10.627 6.42202 10.5794 5.55068 10.6499 4.80872C10.9145 2.0087 13.1746 0.373165 15.6726 0.0436317C15.8192 0.0234149 17.291 -0.120124 17.1597 0.255908Z" fill="#45B64A"/>
<path d="M10.3105 11.0421C10.1182 11.1735 10.1601 11.0946 10.0573 11.0077C9.74694 10.7429 9.4404 10.2031 9.12434 9.87557C8.61787 9.34994 8.00479 8.81015 7.40312 8.40986L9.012 10.5468L10.1011 12.7383C9.14718 12.8393 8.06571 12.896 7.28507 12.2086C5.54672 10.6762 6.07223 7.6679 4.29199 6.09503C4.39481 5.8585 6.31023 5.99193 6.64343 6.0546C9.12243 6.50544 10.3277 8.44018 10.3105 11.0421Z" fill="#45B64A"/>
<path d="M12.9635 10.916C12.9178 10.732 12.7141 10.9059 12.6379 10.9746C12.3656 11.2213 12.0534 11.7853 11.8116 11.9915C11.526 12.2341 11.6212 11.4659 11.6383 11.3446C11.8382 9.82228 13.9383 8.24133 15.3225 8.91455C14.0126 10.1882 14.8389 12.7072 12.7293 13.1722C10.9452 13.5624 12.3675 11.4538 12.9635 10.916Z" fill="#45B64A"/>
<path d="M12.6039 18.6452L10.6923 18.447C11.4653 18.7564 12.4192 18.7503 13.0152 19.4336C11.6138 21.4452 10.2353 19.4943 8.89493 18.8291C8.63789 18.7018 8.43987 18.7159 8.20568 18.6472C8.10667 18.6169 8.03813 18.724 8.00195 18.4753C9.24717 17.1249 11.7014 16.7468 12.6039 18.6452Z" fill="#45B64A"/>
<path d="M30.8159 36.0467C30.934 36.0669 30.894 35.8607 30.8864 35.7859C30.7969 34.9994 30.3551 34.3929 30.1 33.7056C30.0695 33.6227 29.9648 33.556 30.1419 33.5863C30.5779 33.6631 31.172 34.1584 31.4461 34.5183C32.3905 35.7576 32.4838 37.9794 31.3433 39.1095C31.1415 38.7517 30.9397 38.406 30.7036 38.0724C29.6697 36.6127 27.6591 35.2481 29.306 33.283C29.6659 33.186 30.9035 35.5615 30.8159 36.0467Z" fill="#45B64A"/>
<path d="M29.6174 33.2058C27.9819 31.4915 26.017 30.9173 23.8331 31.8837C23.3742 32.0879 23.0867 32.4962 22.5117 32.2739C24.2805 30.6282 26.9899 30.5251 28.8101 32.1606C29.0995 32.4154 29.4899 32.8278 29.6174 33.2058Z" fill="#45B64A"/>
</svg>
