<svg width="44" height="44" viewBox="0 0 44 44" fill="none" xmlns="http://www.w3.org/2000/svg">
<rect x="0.5" y="0.5" width="43" height="43" rx="7.5" stroke="#70A9F2"/>
<path d="M18 21C18 20.7348 18.1054 20.4805 18.2929 20.2929C18.4804 20.1054 18.7348 20 19 20H25C25.2652 20 25.5196 20.1054 25.7071 20.2929C25.8946 20.4805 26 20.7348 26 21C26 21.2653 25.8946 21.5196 25.7071 21.7071C25.5196 21.8947 25.2652 22 25 22H19C18.7348 22 18.4804 21.8947 18.2929 21.7071C18.1054 21.5196 18 21.2653 18 21ZM19 24C18.7348 24 18.4804 24.1054 18.2929 24.2929C18.1054 24.4805 18 24.7348 18 25C18 25.2653 18.1054 25.5196 18.2929 25.7071C18.4804 25.8947 18.7348 26 19 26H23C23.2652 26 23.5196 25.8947 23.7071 25.7071C23.8946 25.5196 24 25.2653 24 25C24 24.7348 23.8946 24.4805 23.7071 24.2929C23.5196 24.1054 23.2652 24 23 24H19ZM12 22C12.0005 19.8076 12.7215 17.6762 14.052 15.9336C15.3825 14.1911 17.2488 12.9341 19.3636 12.3561C21.4784 11.7781 23.7246 11.9111 25.7565 12.7347C27.7883 13.5583 29.4932 15.0267 30.6087 16.9141C31.7243 18.8015 32.1886 21.0032 31.9304 23.1803C31.6721 25.3574 30.7055 27.3894 29.1794 28.9634C27.6533 30.5374 25.6521 31.5662 23.484 31.8916C21.3159 32.2169 19.1009 31.8208 17.18 30.764L13.292 31.948C13.1186 32.0009 12.9341 32.0056 12.7582 31.9616C12.5823 31.9177 12.4217 31.8267 12.2935 31.6985C12.1653 31.5704 12.0744 31.4097 12.0304 31.2338C11.9865 31.058 11.9912 30.8735 12.044 30.7L13.228 26.806C12.4215 25.3326 11.9992 23.6797 12 22ZM22 14C20.5799 13.9999 19.1853 14.3778 17.9596 15.0949C16.7338 15.8121 15.721 16.8426 15.0253 18.0806C14.3295 19.3186 13.9758 20.7195 14.0005 22.1394C14.0253 23.5593 14.4275 24.947 15.166 26.16C15.2393 26.2805 15.2863 26.4152 15.3039 26.5551C15.3214 26.6951 15.3092 26.8371 15.268 26.972L14.502 29.49L17.016 28.724C17.1513 28.6828 17.2938 28.6708 17.4342 28.6887C17.5745 28.7066 17.7094 28.7541 17.83 28.828C18.8844 29.4718 20.0735 29.8626 21.3041 29.9698C22.5348 30.0771 23.7736 29.8979 24.9234 29.4463C26.0732 28.9946 27.1029 28.2829 27.9316 27.3667C28.7603 26.4506 29.3656 25.355 29.7 24.1658C30.0344 22.9766 30.0889 21.7261 29.8592 20.5123C29.6295 19.2985 29.1218 18.1544 28.3759 17.1697C27.63 16.185 26.6662 15.3863 25.56 14.8364C24.4538 14.2865 23.2353 14.0002 22 14Z" fill="#70A9F2" stroke="white" stroke-width="0.5"/>
</svg>
