<svg width="12" height="21" viewBox="0 0 12 21" fill="none" xmlns="http://www.w3.org/2000/svg">
<path d="M0.6 8.63379C0.75913 8.63379 0.911742 8.69803 1.02426 8.81238C1.13679 8.92673 1.2 9.08183 1.2 9.24355V10.4631C1.2 11.7568 1.70571 12.9975 2.60589 13.9124C3.50606 14.8272 4.72696 15.3411 6 15.3411C7.27304 15.3411 8.49394 14.8272 9.39411 13.9124C10.2943 12.9975 10.8 11.7568 10.8 10.4631V9.24355C10.8 9.08183 10.8632 8.92673 10.9757 8.81238C11.0883 8.69803 11.2409 8.63379 11.4 8.63379C11.5591 8.63379 11.7117 8.69803 11.8243 8.81238C11.9368 8.92673 12 9.08183 12 9.24355V10.4631C12 11.9747 11.4475 13.4324 10.4497 14.5535C9.45195 15.6745 8.07998 16.379 6.6 16.5301V18.9996H10.2C10.3591 18.9996 10.5117 19.0639 10.6243 19.1782C10.7368 19.2926 10.8 19.4477 10.8 19.6094C10.8 19.7711 10.7368 19.9262 10.6243 20.0406C10.5117 20.1549 10.3591 20.2192 10.2 20.2192H1.8C1.64087 20.2192 1.48826 20.1549 1.37574 20.0406C1.26321 19.9262 1.2 19.7711 1.2 19.6094C1.2 19.4477 1.26321 19.2926 1.37574 19.1782C1.48826 19.0639 1.64087 18.9996 1.8 18.9996H5.4V16.5301C3.92002 16.379 2.54805 15.6745 1.55026 14.5535C0.552461 13.4324 -1.8686e-05 11.9747 4.74007e-10 10.4631V9.24355C4.74007e-10 9.08183 0.0632142 8.92673 0.175736 8.81238C0.288258 8.69803 0.44087 8.63379 0.6 8.63379Z" fill="#70A9F2"/>
<path d="M8.3999 10.4631C8.3999 11.11 8.14705 11.7304 7.69696 12.1878C7.24687 12.6452 6.63642 12.9022 5.9999 12.9022C5.36338 12.9022 4.75293 12.6452 4.30285 12.1878C3.85276 11.7304 3.5999 11.11 3.5999 10.4631V4.36557C3.5999 3.7187 3.85276 3.09832 4.30285 2.64092C4.75293 2.18351 5.36338 1.92654 5.9999 1.92654C6.63642 1.92654 7.24687 2.18351 7.69696 2.64092C8.14705 3.09832 8.3999 3.7187 8.3999 4.36557V10.4631ZM5.9999 0.707031C5.04512 0.707031 4.12945 1.09248 3.45432 1.77859C2.77919 2.4647 2.3999 3.39526 2.3999 4.36557V10.4631C2.3999 11.4334 2.77919 12.364 3.45432 13.0501C4.12945 13.7362 5.04512 14.1217 5.9999 14.1217C6.95468 14.1217 7.87036 13.7362 8.54549 13.0501C9.22062 12.364 9.5999 11.4334 9.5999 10.4631V4.36557C9.5999 3.39526 9.22062 2.4647 8.54549 1.77859C7.87036 1.09248 6.95468 0.707031 5.9999 0.707031V0.707031Z" fill="#70A9F2"/>
</svg>
