<svg width="16" height="16" viewBox="0 0 16 16" fill="none" xmlns="http://www.w3.org/2000/svg">
<path fill-rule="evenodd" clip-rule="evenodd" d="M12.6666 1.99996H13.3333C14.0666 1.99996 14.6666 2.59996 14.6666 3.33329V14C14.6666 14.7333 14.0666 15.3333 13.3333 15.3333H2.66659C1.93325 15.3333 1.33325 14.7333 1.33325 14V3.33329C1.33325 2.59996 1.93325 1.99996 2.66659 1.99996H3.33325V1.33329C3.33325 0.966626 3.63325 0.666626 3.99992 0.666626C4.36659 0.666626 4.66659 0.966626 4.66659 1.33329V1.99996H11.3333V1.33329C11.3333 0.966626 11.6333 0.666626 11.9999 0.666626C12.3666 0.666626 12.6666 0.966626 12.6666 1.33329V1.99996ZM3.33325 14H12.6666C13.0333 14 13.3333 13.7 13.3333 13.3333V5.33329H2.66659V13.3333C2.66659 13.7 2.96659 14 3.33325 14Z" fill="#494E50"/>
</svg>
