<svg width="36" height="36" viewBox="0 0 36 36" fill="none" xmlns="http://www.w3.org/2000/svg">
<rect width="36" height="36" rx="18" fill="#F4F5F7"/>
<path fill-rule="evenodd" clip-rule="evenodd" d="M11 15C11 13.1435 11.7375 11.363 13.0503 10.0503C14.363 8.7375 16.1435 8 18 8C19.8565 8 21.637 8.7375 22.9498 10.0503C24.2625 11.363 25 13.1435 25 15V18.764L26.822 22.408C26.9059 22.5757 26.9455 22.7621 26.9371 22.9494C26.9286 23.1368 26.8725 23.3188 26.7739 23.4783C26.6753 23.6379 26.5375 23.7695 26.3737 23.8608C26.2099 23.9521 26.0255 24 25.838 24H21.874C21.6516 24.8582 21.1504 25.6183 20.4493 26.1609C19.7481 26.7035 18.8866 26.9979 18 26.9979C17.1134 26.9979 16.2519 26.7035 15.5507 26.1609C14.8496 25.6183 14.3484 24.8582 14.126 24H10.162C9.97448 24 9.79007 23.9521 9.62627 23.8608C9.46248 23.7695 9.32474 23.6379 9.22615 23.4783C9.12756 23.3188 9.07138 23.1368 9.06296 22.9494C9.05453 22.7621 9.09413 22.5757 9.17801 22.408L11 18.764V15ZM16.268 24C16.4435 24.304 16.696 24.5565 17.0001 24.732C17.3041 24.9075 17.649 24.9999 18 24.9999C18.3511 24.9999 18.6959 24.9075 19 24.732C19.304 24.5565 19.5565 24.304 19.732 24H16.268ZM18 10C16.6739 10 15.4022 10.5268 14.4645 11.4645C13.5268 12.4021 13 13.6739 13 15V18.764C13 19.0743 12.9277 19.3804 12.789 19.658L11.619 22H24.382L23.212 19.658C23.0729 19.3805 23.0003 19.0744 23 18.764V15C23 13.6739 22.4732 12.4021 21.5355 11.4645C20.5979 10.5268 19.3261 10 18 10Z" fill="#70A9F2"/>
</svg>
