<svg width="28" height="28" viewBox="0 0 28 28" fill="none" xmlns="http://www.w3.org/2000/svg">
<path d="M17.3192 10.3879L16.1592 9.12036L10.3592 15.463C10.1307 15.7129 9.94955 16.0096 9.82595 16.3361C9.70236 16.6626 9.63877 17.0126 9.63882 17.3659C9.63888 17.7193 9.70257 18.0693 9.82626 18.3957C9.94995 18.7222 10.1312 19.0188 10.3597 19.2687C10.5882 19.5185 10.8595 19.7167 11.158 19.8519C11.4565 19.987 11.7765 20.0566 12.0996 20.0565C12.4227 20.0565 12.7426 19.9868 13.0411 19.8515C13.3395 19.7162 13.6107 19.518 13.8392 19.268L20.7992 11.6567C21.5682 10.8154 22.0001 9.67449 22 8.4849C21.9999 7.29532 21.5677 6.1545 20.7986 5.31342C20.0295 4.47233 18.9864 3.99988 17.8988 4C16.8112 4.00012 15.7681 4.47279 14.9992 5.31404L7.69172 13.3054L7.67572 13.3217C5.44143 15.7655 5.44143 19.7255 7.67572 22.1681C9.91001 24.6106 13.5306 24.6106 15.7649 22.1681L15.7797 22.1506L15.7809 22.1518L20.7695 16.6967L19.6095 15.4292L14.6209 20.8831L14.606 20.8993C13.8405 21.735 12.803 22.2044 11.7214 22.2044C10.6398 22.2044 9.60243 21.735 8.83686 20.8993C8.45739 20.4834 8.15672 19.9896 7.95208 19.4462C7.74744 18.9029 7.64287 18.3207 7.64436 17.7331C7.64584 17.1455 7.75336 16.564 7.96074 16.0219C8.16812 15.4798 8.47129 14.9879 8.85286 14.5742L8.85172 14.573L16.1603 6.58156C17.1192 5.53154 18.6803 5.53154 19.6403 6.58156C20.6003 7.63158 20.5992 9.33786 19.6403 10.3866L12.6803 17.998C12.5245 18.1547 12.3195 18.2395 12.1079 18.2348C11.8963 18.23 11.6946 18.136 11.5448 17.9724C11.3951 17.8088 11.309 17.5883 11.3044 17.3568C11.2998 17.1254 11.3772 16.901 11.5203 16.7305L17.3203 10.3866L17.3192 10.3879Z" fill="#70A9F2"/>
</svg>
