<svg width="20" height="20" viewBox="0 0 20 20" fill="none" xmlns="http://www.w3.org/2000/svg">
<path d="M12.75 13.9166L13.9166 12.75L10.8333 9.66663V5.83329H9.16663V10.3333L12.75 13.9166ZM9.99996 18.3333C8.84718 18.3333 7.76385 18.1144 6.74996 17.6766C5.73607 17.2388 4.85413 16.6452 4.10413 15.8958C3.35413 15.1463 2.76052 14.2644 2.32329 13.25C1.88607 12.2355 1.66718 11.1522 1.66663 9.99996C1.66607 8.84774 1.88496 7.7644 2.32329 6.74996C2.76163 5.73552 3.35524 4.85357 4.10413 4.10413C4.85302 3.35468 5.73496 2.76107 6.74996 2.32329C7.76496 1.88551 8.84829 1.66663 9.99996 1.66663C11.1516 1.66663 12.235 1.88551 13.25 2.32329C14.265 2.76107 15.1469 3.35468 15.8958 4.10413C16.6447 4.85357 17.2386 5.73552 17.6775 6.74996C18.1163 7.7644 18.335 8.84774 18.3333 9.99996C18.3316 11.1522 18.1127 12.2355 17.6766 13.25C17.2405 14.2644 16.6469 15.1463 15.8958 15.8958C15.1447 16.6452 14.2627 17.2391 13.25 17.6775C12.2372 18.1158 11.1538 18.3344 9.99996 18.3333ZM9.99996 16.6666C11.8472 16.6666 13.4202 16.0175 14.7191 14.7191C16.018 13.4208 16.6672 11.8477 16.6666 9.99996C16.6661 8.15218 16.0169 6.57913 14.7191 5.28079C13.4213 3.98246 11.8483 3.33329 9.99996 3.33329C8.15163 3.33329 6.57857 3.98274 5.28079 5.28163C3.98302 6.58051 3.33385 8.15329 3.33329 9.99996C3.33274 11.8466 3.98218 13.4197 5.28163 14.7191C6.58107 16.0186 8.15385 16.6677 9.99996 16.6666Z" fill="#70A9F2"/>
</svg>
