<svg width="16" height="16" viewBox="0 0 16 16" fill="none" xmlns="http://www.w3.org/2000/svg">
<path d="M12.436 11.73L14.389 13.682C14.4801 13.7763 14.5305 13.9026 14.5293 14.0337C14.5282 14.1648 14.4756 14.2902 14.3829 14.3829C14.2902 14.4756 14.1648 14.5282 14.0337 14.5293C13.9026 14.5304 13.7763 14.48 13.682 14.389L11.729 12.436C10.4527 13.5294 8.8026 14.086 7.1248 13.989C5.44701 13.8921 3.87199 13.149 2.73024 11.9158C1.58849 10.6826 0.968769 9.05507 1.00111 7.37478C1.03346 5.6945 1.71535 4.09205 2.90372 2.90369C4.09208 1.71532 5.69453 1.03343 7.37481 1.00108C9.0551 0.968739 10.6826 1.58846 11.9158 2.73021C13.149 3.87196 13.8921 5.44698 13.9891 7.12477C14.0861 8.80257 13.5294 10.4527 12.436 11.729V11.73ZM7.49999 13C8.95868 13 10.3576 12.4205 11.3891 11.389C12.4205 10.3576 13 8.95865 13 7.49996C13 6.04127 12.4205 4.64232 11.3891 3.61087C10.3576 2.57942 8.95868 1.99996 7.49999 1.99996C6.0413 1.99996 4.64235 2.57942 3.6109 3.61087C2.57945 4.64232 1.99999 6.04127 1.99999 7.49996C1.99999 8.95865 2.57945 10.3576 3.6109 11.389C4.64235 12.4205 6.0413 13 7.49999 13Z" fill="black" fill-opacity="0.4"/>
</svg>
