<svg width="40" height="40" viewBox="0 0 40 40" fill="none" xmlns="http://www.w3.org/2000/svg">
<ellipse cx="20" cy="19.5122" rx="20" ry="19.5122" fill="#70A9F2"/>
<path d="M20.2259 20.1209L14.0464 21.2369C13.9753 21.2498 13.9087 21.2826 13.8531 21.3323C13.7975 21.3819 13.7549 21.4466 13.7297 21.5197L11.599 27.7068C11.3956 28.2759 11.9444 28.8183 12.4482 28.5444L27.2159 20.5415C27.318 20.4861 27.4038 20.401 27.4638 20.2957C27.5238 20.1904 27.5555 20.0691 27.5555 19.9453C27.5555 19.8216 27.5238 19.7003 27.4638 19.595C27.4038 19.4897 27.318 19.4046 27.2159 19.3491L12.4482 11.3462C11.9444 11.0732 11.3956 11.6157 11.599 12.1839L13.7305 18.371C13.7557 18.4441 13.7983 18.5087 13.8539 18.5584C13.9095 18.608 13.9762 18.6409 14.0472 18.6537L20.2267 19.7697C20.2652 19.7764 20.3003 19.7977 20.3257 19.8299C20.351 19.8621 20.3649 19.903 20.3649 19.9453C20.3649 19.9876 20.351 20.0286 20.3257 20.0607C20.3003 20.0929 20.2652 20.1143 20.2267 20.1209H20.2259Z" fill="white"/>
</svg>
