<svg width="20" height="20" viewBox="0 0 20 20" fill="none" xmlns="http://www.w3.org/2000/svg">
<path d="M2.73496 18.1517L6.29996 14.5867M6.29996 14.5867L8.9608 11.925M6.29996 14.5867C5.93246 14.3583 5.58996 14.1067 5.2733 13.8408C3.9033 12.6925 3.0008 11.2933 2.5758 10.5408C2.48413 10.3783 2.43746 10.2967 2.4108 10.17C2.39139 10.0575 2.39139 9.94249 2.4108 9.82999C2.43746 9.70249 2.4833 9.62165 2.57496 9.45832C3.37663 8.04082 5.86996 4.32499 9.99996 4.32499C11.4308 4.32499 12.6666 4.77165 13.7008 5.41332C14.0683 5.64082 14.4108 5.89249 14.7275 6.15832M18.1516 2.73499L14.7275 6.15832M14.7275 6.15832L11.925 8.96082M11.925 8.96082C11.7218 8.58593 11.414 8.27818 11.0391 8.07498C10.7863 7.93852 10.5091 7.85318 10.2234 7.82385C9.93759 7.79451 9.64883 7.82175 9.37358 7.904C9.09834 7.98626 8.84198 8.12193 8.61917 8.30325C8.39635 8.48458 8.21143 8.70802 8.07496 8.96082C7.9385 9.21361 7.85316 9.49081 7.82382 9.77659C7.79449 10.0624 7.82172 10.3511 7.90398 10.6264C7.98624 10.9016 8.1219 11.158 8.30323 11.3808C8.48456 11.6036 8.708 11.7885 8.9608 11.925M11.925 8.96082L8.9608 11.925M16.45 7.98249C16.89 8.56082 17.2158 9.08915 17.425 9.45998C17.5166 9.62165 17.5625 9.70332 17.5891 9.82999C17.6083 9.92332 17.6083 10.0767 17.5891 10.17C17.5625 10.2967 17.5166 10.3783 17.425 10.54C16.625 11.9583 14.1333 15.675 9.99996 15.675C9.6033 15.6739 9.22163 15.6414 8.85496 15.5775" stroke="black" stroke-width="1.25" stroke-linecap="round" stroke-linejoin="round"/>
</svg>
