<svg width="60" height="61" viewBox="0 0 60 61" fill="none" xmlns="http://www.w3.org/2000/svg">
<path d="M50.625 10.5938H16.875C16.0048 10.5938 15.1702 10.9395 14.5548 11.5548C13.9395 12.1702 13.5938 13.0048 13.5938 13.875V18.0938H9.375C8.50476 18.0938 7.67016 18.4395 7.05481 19.0548C6.43945 19.6702 6.09375 20.5048 6.09375 21.375V47.625C6.09375 48.4952 6.43945 49.3298 7.05481 49.9452C7.67016 50.5605 8.50476 50.9062 9.375 50.9062H43.125C43.9952 50.9062 44.8298 50.5605 45.4452 49.9452C46.0605 49.3298 46.4062 48.4952 46.4062 47.625V43.4062H50.625C51.4952 43.4062 52.3298 43.0605 52.9452 42.4452C53.5605 41.8298 53.9062 40.9952 53.9062 40.125V13.875C53.9062 13.0048 53.5605 12.1702 52.9452 11.5548C52.3298 10.9395 51.4952 10.5938 50.625 10.5938ZM16.4062 13.875C16.4062 13.7507 16.4556 13.6315 16.5435 13.5435C16.6315 13.4556 16.7507 13.4062 16.875 13.4062H50.625C50.7493 13.4062 50.8685 13.4556 50.9565 13.5435C51.0444 13.6315 51.0938 13.7507 51.0938 13.875V29.7117L47.9367 26.5547C47.632 26.25 47.2703 26.0082 46.8722 25.8433C46.474 25.6784 46.0473 25.5935 45.6164 25.5935C45.1855 25.5935 44.7588 25.6784 44.3606 25.8433C43.9625 26.0082 43.6008 26.25 43.2961 26.5547L38.2758 31.5727L27.6328 20.9297C27.3281 20.625 26.9664 20.3832 26.5683 20.2183C26.1701 20.0534 25.7434 19.9685 25.3125 19.9685C24.8816 19.9685 24.4549 20.0534 24.0567 20.2183C23.6586 20.3832 23.2969 20.625 22.9922 20.9297L16.4062 27.5156V13.875ZM43.5938 47.625C43.5938 47.7493 43.5444 47.8685 43.4565 47.9565C43.3685 48.0444 43.2493 48.0938 43.125 48.0938H9.375C9.25068 48.0938 9.13145 48.0444 9.04354 47.9565C8.95564 47.8685 8.90625 47.7493 8.90625 47.625V21.375C8.90625 21.2507 8.95564 21.1315 9.04354 21.0435C9.13145 20.9556 9.25068 20.9062 9.375 20.9062H13.5938V40.125C13.5938 40.9952 13.9395 41.8298 14.5548 42.4452C15.1702 43.0605 16.0048 43.4062 16.875 43.4062H43.5938V47.625ZM50.625 40.5938H16.875C16.7507 40.5938 16.6315 40.5444 16.5435 40.4565C16.4556 40.3685 16.4062 40.2493 16.4062 40.125V31.493L24.9797 22.9195C25.0232 22.8759 25.0749 22.8414 25.1318 22.8178C25.1887 22.7942 25.2497 22.7821 25.3113 22.7821C25.3729 22.7821 25.4339 22.7942 25.4908 22.8178C25.5477 22.8414 25.5994 22.8759 25.643 22.9195L37.282 34.5586C37.4126 34.6893 37.5677 34.7931 37.7384 34.8638C37.9092 34.9346 38.0921 34.971 38.277 34.971C38.4618 34.971 38.6447 34.9346 38.8155 34.8638C38.9862 34.7931 39.1413 34.6893 39.2719 34.5586L45.2836 28.5445C45.3271 28.5009 45.3788 28.4664 45.4357 28.4428C45.4926 28.4192 45.5536 28.4071 45.6152 28.4071C45.6768 28.4071 45.7378 28.4192 45.7947 28.4428C45.8516 28.4664 45.9033 28.5009 45.9469 28.5445L51.1031 33.7008V40.125C51.1031 40.1874 51.0907 40.2491 51.0666 40.3066C51.0424 40.3641 51.0071 40.4162 50.9625 40.4598C50.918 40.5035 50.8652 40.5378 50.8073 40.5608C50.7493 40.5838 50.6873 40.595 50.625 40.5938ZM37.9688 20.4375C37.9688 19.974 38.1062 19.5208 38.3637 19.1354C38.6213 18.75 38.9873 18.4496 39.4156 18.2722C39.8439 18.0948 40.3151 18.0484 40.7697 18.1388C41.2244 18.2292 41.642 18.4524 41.9698 18.7802C42.2976 19.108 42.5208 19.5256 42.6112 19.9803C42.7016 20.4349 42.6552 20.9061 42.4778 21.3344C42.3004 21.7627 42 22.1287 41.6146 22.3863C41.2292 22.6438 40.7761 22.7812 40.3125 22.7812C39.6909 22.7812 39.0948 22.5343 38.6552 22.0948C38.2157 21.6552 37.9688 21.0591 37.9688 20.4375Z" fill="#70A9F2"/>
</svg>
